<svg width="767" height="91" fill="none" xmlns="http://www.w3.org/2000/svg"><path d="M573.28 45.146c.081.063.163.127.25.19" stroke="#fff" stroke-width="6" stroke-linecap="round" stroke-linejoin="round"/><path d="M583.6 53.021c23.586 17.734 49.334 34.27 84.725 34.27 38.105 0 63.189-17.752 89.764-38.097" stroke="#fff" stroke-width="6" stroke-linecap="round" stroke-linejoin="round" stroke-dasharray="1.01 20.14"/><path d="M763.12 45.342c.082-.063.17-.126.251-.19M573.28 45.146c.081-.064.163-.127.25-.19" stroke="#fff" stroke-width="6" stroke-linecap="round" stroke-linejoin="round"/><path d="M583.6 37.27C607.18 19.543 632.934 3 668.325 3c38.105 0 63.189 17.753 89.764 38.097" stroke="#fff" stroke-width="6" stroke-linecap="round" stroke-linejoin="round" stroke-dasharray="1.01 20.14"/><path d="M763.12 44.956c.082.063.17.126.251.19M383.194 45.146c.081.063.163.127.25.19" stroke="#fff" stroke-width="6" stroke-linecap="round" stroke-linejoin="round"/><path d="M393.507 53.021c23.586 17.734 49.334 34.27 84.726 34.27 38.104 0 63.188-17.752 89.763-38.097" stroke="#fff" stroke-width="6" stroke-linecap="round" stroke-linejoin="round" stroke-dasharray="1.01 20.14"/><path d="M573.035 45.342c.081-.063.169-.126.25-.19M383.194 45.146c.081-.064.163-.127.25-.19" stroke="#fff" stroke-width="6" stroke-linecap="round" stroke-linejoin="round"/><path d="M393.507 37.27C417.093 19.536 442.841 3 478.233 3c38.104 0 63.188 17.753 89.763 38.097" stroke="#fff" stroke-width="6" stroke-linecap="round" stroke-linejoin="round" stroke-dasharray="1.01 20.14"/><path d="M573.035 44.956c.081.063.169.126.25.19M193.098 45.146c.081.063.163.127.251.19" stroke="#fff" stroke-width="6" stroke-linecap="round" stroke-linejoin="round"/><path d="M203.422 53.021c23.586 17.734 49.334 34.27 84.726 34.27 38.105 0 63.188-17.752 89.763-38.097" stroke="#fff" stroke-width="6" stroke-linecap="round" stroke-linejoin="round" stroke-dasharray="1.01 20.14"/><path d="M382.943 45.342c.081-.063.169-.126.25-.19M193.094 45.146c.082-.064.163-.127.251-.19" stroke="#fff" stroke-width="6" stroke-linecap="round" stroke-linejoin="round"/><path d="M203.422 37.27C227.008 19.536 252.756 3 288.148 3c38.105 0 63.188 17.753 89.763 38.097" stroke="#fff" stroke-width="6" stroke-linecap="round" stroke-linejoin="round" stroke-dasharray="1.01 20.14"/><path d="M382.943 44.956c.081.063.169.126.25.19M3 45.145c.082.064.163.127.251.19" stroke="#fff" stroke-width="6" stroke-linecap="round" stroke-linejoin="round"/><path d="M13.32 53.02c23.587 17.735 49.335 34.271 84.726 34.271 38.105 0 63.189-17.753 89.764-38.097" stroke="#fff" stroke-width="6" stroke-linecap="round" stroke-linejoin="round" stroke-dasharray="1.01 20.14"/><path d="m192.842 45.342.251-.19M3 45.146c.082-.064.163-.127.251-.19" stroke="#fff" stroke-width="6" stroke-linecap="round" stroke-linejoin="round"/><path d="M13.32 37.27C36.908 19.536 62.656 3 98.047 3c38.105 0 63.189 17.753 89.764 38.097" stroke="#fff" stroke-width="6" stroke-linecap="round" stroke-linejoin="round" stroke-dasharray="1.01 20.14"/><path d="m192.842 44.956.251.19" stroke="#fff" stroke-width="6" stroke-linecap="round" stroke-linejoin="round"/></svg>