<svg width="170" height="1460" fill="none" xmlns="http://www.w3.org/2000/svg"><g clip-path="url('#clip0_3920_1409')" stroke="#fff" stroke-width="9" stroke-linecap="round" stroke-linejoin="round"><path d="M84.994 367.69c.12-.155.24-.31.36-.478"/><path d="M99.87 348.019c33.496-44.955 64.732-94.03 64.732-161.487 0-72.628-33.533-120.437-71.961-171.09" stroke-dasharray="1.01 20.14"/><path d="M85.365 5.852c-.12-.155-.24-.322-.36-.477M84.994 367.69c-.12-.155-.24-.31-.36-.478"/><path d="M70.118 348.019c-33.486-44.943-64.733-94.03-64.733-161.487 0-72.628 33.533-120.437 71.961-171.09" stroke-dasharray="1.01 20.14"/><path d="M84.635 5.852c.12-.155.24-.322.359-.477M84.994 729.994c.12-.155.24-.311.36-.478"/><path d="M99.87 710.335c33.496-44.955 64.732-94.03 64.732-161.487 0-72.628-33.533-120.437-71.961-171.089" stroke-dasharray="1.01 20.14"/><path d="M85.365 368.156c-.12-.155-.24-.323-.36-.478M84.994 729.994c-.12-.155-.24-.311-.36-.478"/><path d="M70.118 710.335C36.62 665.38 5.385 616.305 5.385 548.848c0-72.628 33.533-120.437 71.961-171.089" stroke-dasharray="1.01 20.14"/><path d="M84.635 368.156c.12-.155.24-.323.359-.478M84.994 1092.31c.12-.16.24-.31.36-.48"/><path d="M99.87 1072.64c33.496-44.96 64.732-94.031 64.732-161.488 0-72.628-33.533-120.437-71.961-171.09" stroke-dasharray="1.01 20.14"/><path d="M85.365 730.472c-.12-.155-.24-.323-.36-.478M84.994 1092.31c-.12-.16-.24-.31-.36-.48"/><path d="M70.118 1072.64C36.62 1027.68 5.385 978.609 5.385 911.152c0-72.628 33.533-120.437 71.961-171.09" stroke-dasharray="1.01 20.14"/><path d="M84.635 730.472c.12-.155.24-.323.359-.478M84.994 1454.63l.36-.48"/><path d="M99.87 1434.95c33.496-44.95 64.732-94.03 64.732-161.48 0-72.63-33.533-120.44-71.961-171.09" stroke-dasharray="1.01 20.14"/><path d="m85.365 1092.79-.36-.48M84.994 1454.63l-.36-.48"/><path d="M70.118 1434.95C36.62 1390 5.385 1340.92 5.385 1273.47c0-72.63 33.533-120.44 71.961-171.09" stroke-dasharray="1.01 20.14"/><path d="m84.635 1092.79.359-.48"/></g><defs><clipPath id="clip0_3920_1409"><path fill="#fff" d="M0 0h170v1460H0z"/></clipPath></defs></svg>