<svg width="166" height="705" fill="none" xmlns="http://www.w3.org/2000/svg"><mask id="path-1-inside-1_3920_1449" fill="#fff"><path d="M156.173 540.411c-7.461-13.229-18.59-24.236-32.158-31.817l-10.92-6.085 10.92-6.085c13.589-7.58 24.718-18.587 32.158-31.817a67.465 67.465 0 0 0 2.293-4.382c10.045-20.644 10.045-44.88 0-65.524-.73-1.474-1.48-2.949-2.293-4.382-7.461-13.229-18.569-24.237-32.158-31.817l-10.816-6.044 10.816-6.043c13.589-7.581 24.697-18.588 32.158-31.817a67.465 67.465 0 0 0 2.293-4.382c10.045-20.644 10.045-44.88 0-65.524-.73-1.475-1.48-2.949-2.293-4.382-7.461-13.23-18.59-24.237-32.158-31.817l-10.92-6.085 10.92-6.085c13.589-7.581 24.697-18.588 32.158-31.817a73.091 73.091 0 0 0 2.293-4.383c10.045-20.643 10.045-44.88 0-65.523-.73-1.475-1.48-2.95-2.293-4.383-7.461-13.229-18.569-24.236-32.158-31.817l-10.92-6.105 22.237-12.42C149.504 31.962 154.548 14.102 146.607 0L83 35.514 19.393.084c-7.94 14.122-2.876 31.961 11.275 39.874l22.237 12.42-10.92 6.105c-13.589 7.58-24.718 18.588-32.158 31.818a67.281 67.281 0 0 0-2.293 4.382c-10.045 20.643-10.045 44.88 0 65.523.73 1.475 1.48 2.95 2.293 4.383 7.46 13.229 18.59 24.236 32.158 31.817l10.92 6.085-10.92 6.085c-13.589 7.58-24.718 18.587-32.158 31.817a67.356 67.356 0 0 0-2.293 4.382c-10.045 20.644-10.045 44.88 0 65.524.73 1.474 1.48 2.949 2.293 4.382 7.46 13.229 18.57 24.237 32.158 31.817l10.816 6.044-10.816 6.043c-13.589 7.58-24.697 18.588-32.158 31.817a67.356 67.356 0 0 0-2.293 4.382c-10.045 20.644-10.045 44.88 0 65.524.73 1.475 1.48 2.949 2.293 4.382 7.46 13.23 18.59 24.237 32.158 31.817l10.92 6.085-10.92 6.085c-13.589 7.581-24.697 18.588-32.158 31.817a72.963 72.963 0 0 0-2.293 4.383c-10.045 20.643-10.045 44.88 0 65.523.73 1.475 1.48 2.95 2.293 4.383 7.46 13.229 18.57 24.236 32.158 31.817l10.92 6.105-22.237 12.42C16.496 673.038 11.452 690.898 19.393 705L83 669.486 146.607 705c7.941-14.122 2.876-31.962-11.275-39.875l-22.237-12.42 10.92-6.105c13.589-7.581 24.718-18.588 32.158-31.817a67.232 67.232 0 0 0 2.293-4.383c10.045-20.643 10.045-44.88 0-65.523-.73-1.475-1.48-2.95-2.293-4.383v-.083ZM31.21 140.601a42.432 42.432 0 0 1 0-26.334c4.168-12.669 12.921-23.385 25.134-30.218L82.98 69.18l26.635 14.87c12.213 6.812 20.987 17.549 25.135 30.218a42.143 42.143 0 0 1 0 26.334c-4.148 12.669-12.922 23.385-25.135 30.218L83 185.689l-26.614-14.87c-12.213-6.812-20.987-17.549-25.135-30.218h-.041Zm0 150.072a42.432 42.432 0 0 1 0-26.334c4.168-12.669 12.921-23.385 25.134-30.218l26.614-14.87 26.615 14.87c12.212 6.812 20.987 17.549 25.134 30.218a42.128 42.128 0 0 1 0 26.334c-4.147 12.668-12.922 23.385-25.134 30.218l-26.635 14.87-26.636-14.87c-12.212-6.812-20.987-17.55-25.134-30.218h.042Zm0 149.968a42.137 42.137 0 0 1 0-26.335c4.147-12.668 12.921-23.385 25.134-30.217l26.635-14.871 26.635 14.871c12.213 6.811 20.987 17.549 25.135 30.217a42.447 42.447 0 0 1 0 26.335c-4.169 12.668-12.922 23.385-25.135 30.217L83 485.728l-26.614-14.87c-12.213-6.812-20.987-17.549-25.135-30.217h-.041Zm103.559 150.092c-4.168 12.669-12.921 23.385-25.134 30.218L83 635.821l-26.635-14.87c-12.213-6.812-20.987-17.549-25.135-30.218a42.134 42.134 0 0 1 0-26.334c4.148-12.669 12.922-23.385 25.135-30.218l26.614-14.87 26.614 14.87c12.213 6.812 20.987 17.549 25.135 30.218a42.43 42.43 0 0 1 0 26.334h.041Z"/></mask><path d="M156.173 540.411c-7.461-13.229-18.59-24.236-32.158-31.817l-10.92-6.085 10.92-6.085c13.589-7.58 24.718-18.587 32.158-31.817a67.465 67.465 0 0 0 2.293-4.382c10.045-20.644 10.045-44.88 0-65.524-.73-1.474-1.48-2.949-2.293-4.382-7.461-13.229-18.569-24.237-32.158-31.817l-10.816-6.044 10.816-6.043c13.589-7.581 24.697-18.588 32.158-31.817a67.465 67.465 0 0 0 2.293-4.382c10.045-20.644 10.045-44.88 0-65.524-.73-1.475-1.48-2.949-2.293-4.382-7.461-13.23-18.59-24.237-32.158-31.817l-10.92-6.085 10.92-6.085c13.589-7.581 24.697-18.588 32.158-31.817a73.091 73.091 0 0 0 2.293-4.383c10.045-20.643 10.045-44.88 0-65.523-.73-1.475-1.48-2.95-2.293-4.383-7.461-13.229-18.569-24.236-32.158-31.817l-10.92-6.105 22.237-12.42C149.504 31.962 154.548 14.102 146.607 0L83 35.514 19.393.084c-7.94 14.122-2.876 31.961 11.275 39.874l22.237 12.42-10.92 6.105c-13.589 7.58-24.718 18.588-32.158 31.818a67.281 67.281 0 0 0-2.293 4.382c-10.045 20.643-10.045 44.88 0 65.523.73 1.475 1.48 2.95 2.293 4.383 7.46 13.229 18.59 24.236 32.158 31.817l10.92 6.085-10.92 6.085c-13.589 7.58-24.718 18.587-32.158 31.817a67.356 67.356 0 0 0-2.293 4.382c-10.045 20.644-10.045 44.88 0 65.524.73 1.474 1.48 2.949 2.293 4.382 7.46 13.229 18.57 24.237 32.158 31.817l10.816 6.044-10.816 6.043c-13.589 7.58-24.697 18.588-32.158 31.817a67.356 67.356 0 0 0-2.293 4.382c-10.045 20.644-10.045 44.88 0 65.524.73 1.475 1.48 2.949 2.293 4.382 7.46 13.23 18.59 24.237 32.158 31.817l10.92 6.085-10.92 6.085c-13.589 7.581-24.697 18.588-32.158 31.817a72.963 72.963 0 0 0-2.293 4.383c-10.045 20.643-10.045 44.88 0 65.523.73 1.475 1.48 2.95 2.293 4.383 7.46 13.229 18.57 24.236 32.158 31.817l10.92 6.105-22.237 12.42C16.496 673.038 11.452 690.898 19.393 705L83 669.486 146.607 705c7.941-14.122 2.876-31.962-11.275-39.875l-22.237-12.42 10.92-6.105c13.589-7.581 24.718-18.588 32.158-31.817a67.232 67.232 0 0 0 2.293-4.383c10.045-20.643 10.045-44.88 0-65.523-.73-1.475-1.48-2.95-2.293-4.383v-.083ZM31.21 140.601a42.432 42.432 0 0 1 0-26.334c4.168-12.669 12.921-23.385 25.134-30.218L82.98 69.18l26.635 14.87c12.213 6.812 20.987 17.549 25.135 30.218a42.143 42.143 0 0 1 0 26.334c-4.148 12.669-12.922 23.385-25.135 30.218L83 185.689l-26.614-14.87c-12.213-6.812-20.987-17.549-25.135-30.218h-.041Zm0 150.072a42.432 42.432 0 0 1 0-26.334c4.168-12.669 12.921-23.385 25.134-30.218l26.614-14.87 26.615 14.87c12.212 6.812 20.987 17.549 25.134 30.218a42.128 42.128 0 0 1 0 26.334c-4.147 12.668-12.922 23.385-25.134 30.218l-26.635 14.87-26.636-14.87c-12.212-6.812-20.987-17.55-25.134-30.218h.042Zm0 149.968a42.137 42.137 0 0 1 0-26.335c4.147-12.668 12.921-23.385 25.134-30.217l26.635-14.871 26.635 14.871c12.213 6.811 20.987 17.549 25.135 30.217a42.447 42.447 0 0 1 0 26.335c-4.169 12.668-12.922 23.385-25.135 30.217L83 485.728l-26.614-14.87c-12.213-6.812-20.987-17.549-25.135-30.217h-.041Zm103.559 150.092c-4.168 12.669-12.921 23.385-25.134 30.218L83 635.821l-26.635-14.87c-12.213-6.812-20.987-17.549-25.135-30.218a42.134 42.134 0 0 1 0-26.334c4.148-12.669 12.922-23.385 25.135-30.218l26.614-14.87 26.614 14.87c12.213 6.812 20.987 17.549 25.135 30.218a42.43 42.43 0 0 1 0 26.334h.041Z" stroke="#fff" stroke-width="4" mask="url('#path-1-inside-1_3920_1449')"/></svg>