<svg width="55" height="61" fill="none" xmlns="http://www.w3.org/2000/svg"><path d="M38.468 46.913c.112-.204.225-.43.338-.657a11.227 11.227 0 0 0 0-9.768c-.113-.227-.225-.43-.338-.657a12.295 12.295 0 0 0-4.766-4.737l-1.626-.906 1.626-.907c2.01-1.133 3.659-2.765 4.766-4.736.112-.205.225-.431.338-.658a11.227 11.227 0 0 0 0-9.768c-.113-.226-.225-.43-.338-.657a12.295 12.295 0 0 0-4.766-4.737l-1.626-.906 3.297-1.859c2.1-1.178 2.846-3.852 1.672-5.96l-9.418 5.303L18.21 0c-1.175 2.108-.43 4.782 1.67 5.96l3.298 1.859-1.626.906c-2.01 1.134-3.659 2.765-4.765 4.737-.113.204-.226.43-.339.657a11.227 11.227 0 0 0 0 9.768c.113.227.226.43.339.657a12.295 12.295 0 0 0 4.765 4.737l1.626.907-1.626.906c-2.01 1.133-3.659 2.765-4.765 4.737-.113.204-.226.43-.339.657a11.227 11.227 0 0 0 0 9.768c.113.227.226.43.339.657a12.295 12.295 0 0 0 4.765 4.737l1.604.907-3.275 1.835c-2.1 1.179-2.846 3.853-1.671 5.96l9.417-5.28 9.418 5.28c1.174-2.107.429-4.781-1.672-5.96L32.1 52.556l1.603-.906c2.01-1.133 3.659-2.765 4.766-4.737ZM23.675 25.451c-1.807-1.02-3.117-2.629-3.727-4.51a6.455 6.455 0 0 1 0-3.92c.61-1.882 1.92-3.49 3.727-4.51l3.952-2.222 3.952 2.221c1.807 1.02 3.117 2.63 3.727 4.51a6.455 6.455 0 0 1 0 3.921c-.61 1.881-1.92 3.49-3.727 4.51l-3.952 2.221-3.952-2.221Zm7.882 22.392-3.952 2.22-3.953-2.22c-1.806-1.02-3.116-2.63-3.726-4.51a6.454 6.454 0 0 1 0-3.921c.61-1.881 1.92-3.49 3.726-4.51l3.953-2.221 3.952 2.22c1.807 1.02 3.116 2.63 3.726 4.51a6.455 6.455 0 0 1 0 3.922c-.61 1.88-1.92 3.49-3.726 4.51Z" fill="url('#paint0_linear_3920_1501')"/><path d="M16.064 54.959a1.21 1.21 0 0 1-.474-.114C6.104 50.178.232 40.727.232 30.166S6.127 10.153 15.59 5.485c.52-.25 1.151-.046 1.4.476.248.52.045 1.155-.474 1.405C7.753 11.672 2.333 20.397 2.333 30.142c0 9.746 5.443 18.471 14.183 22.777.519.25.745.884.474 1.405-.18.386-.565.59-.949.59l.023.045Z" fill="url('#paint1_linear_3920_1501')"/><path d="M39.19 54.959c-.383 0-.767-.227-.948-.59-.248-.52-.045-1.155.475-1.404C47.479 48.657 52.9 39.933 52.9 30.188c0-9.746-5.443-18.471-14.183-22.777a1.034 1.034 0 0 1-.475-1.405c.249-.521.881-.725 1.4-.476C49.129 10.199 55 19.65 55 30.21c0 10.562-5.895 20.012-15.357 24.68a1.212 1.212 0 0 1-.475.114l.023-.045Z" fill="url('#paint2_linear_3920_1501')"/><defs><linearGradient id="paint0_linear_3920_1501" x1="15.33" y1="30.175" x2="39.924" y2="30.174" gradientUnits="userSpaceOnUse"><stop stop-color="#0067A8"/><stop offset=".553" stop-color="#0091A6"/><stop offset="1" stop-color="#00B3DF"/></linearGradient><linearGradient id="paint1_linear_3920_1501" x1=".232" y1="30.168" x2="17.105" y2="30.167" gradientUnits="userSpaceOnUse"><stop stop-color="#0067A8"/><stop offset=".553" stop-color="#0091A6"/><stop offset="1" stop-color="#00B3DF"/></linearGradient><linearGradient id="paint2_linear_3920_1501" x1="38.127" y1="30.213" x2="55" y2="30.213" gradientUnits="userSpaceOnUse"><stop stop-color="#0067A8"/><stop offset=".553" stop-color="#0091A6"/><stop offset="1" stop-color="#00B3DF"/></linearGradient></defs></svg>