<svg width="112" height="488" fill="none" xmlns="http://www.w3.org/2000/svg"><mask id="path-1-inside-1_3932_2106" fill="#fff"><path d="M105.37 374.072c-5.034-9.157-12.543-16.777-21.697-22.024l-7.368-4.212 7.368-4.212c9.168-5.247 16.677-12.866 21.697-22.024a47.199 47.199 0 0 0 1.547-3.033c6.777-14.289 6.777-31.066 0-45.355a61.318 61.318 0 0 0-1.547-3.034c-5.034-9.157-12.529-16.776-21.697-22.023l-7.298-4.184 7.298-4.183c9.168-5.247 16.663-12.866 21.697-22.024a47.199 47.199 0 0 0 1.547-3.033c6.777-14.29 6.777-31.066 0-45.356a61.73 61.73 0 0 0-1.547-3.033c-5.034-9.157-12.543-16.776-21.697-22.024l-7.368-4.212 7.368-4.212c9.168-5.247 16.663-12.866 21.697-22.024a50.866 50.866 0 0 0 1.547-3.033c6.777-14.29 6.777-31.066 0-45.355a61.425 61.425 0 0 0-1.547-3.034c-5.034-9.157-12.529-16.776-21.697-22.023l-7.368-4.227 15.003-8.596C100.87 22.123 104.273 9.762 98.916 0L56 24.583 13.084.058c-5.357 9.775-1.94 22.124 7.608 27.601l15.003 8.597-7.368 4.226C19.159 45.73 11.65 53.35 6.63 62.506a47.017 47.017 0 0 0-1.547 3.033c-6.777 14.29-6.777 31.066 0 45.356.492 1.02.999 2.041 1.547 3.033 5.034 9.157 12.543 16.777 21.697 22.024l7.368 4.212-7.368 4.212C19.159 149.623 11.65 157.242 6.63 166.4a46.78 46.78 0 0 0-1.547 3.033c-6.777 14.289-6.777 31.066 0 45.355a61.099 61.099 0 0 0 1.547 3.034c5.034 9.157 12.529 16.776 21.697 22.023l7.298 4.184-7.298 4.183c-9.168 5.247-16.663 12.866-21.697 22.024a47.038 47.038 0 0 0-1.547 3.033c-6.777 14.29-6.777 31.066 0 45.356.492 1.02.999 2.041 1.547 3.033 5.034 9.157 12.543 16.776 21.697 22.024l7.368 4.212-7.368 4.212c-9.168 5.247-16.663 12.866-21.697 22.023a51.008 51.008 0 0 0-1.547 3.034c-6.777 14.289-6.777 31.066 0 45.355a61.099 61.099 0 0 0 1.547 3.034c5.034 9.157 12.529 16.776 21.697 22.023l7.368 4.227-15.003 8.596C11.13 465.876 7.727 478.239 13.084 488L56 463.417 98.916 488c5.357-9.776 1.94-22.124-7.608-27.602l-15.003-8.596 7.368-4.227c9.168-5.247 16.677-12.866 21.697-22.023a47.224 47.224 0 0 0 1.547-3.034c6.777-14.289 6.777-31.066 0-45.355a61.318 61.318 0 0 0-1.547-3.034v-.057ZM21.057 97.324a30.098 30.098 0 0 1 0-18.228c2.812-8.77 8.718-16.188 16.958-20.917l17.97-10.293 17.972 10.293c8.24 4.715 14.16 12.147 16.958 20.916a29.885 29.885 0 0 1 0 18.229c-2.799 8.769-8.718 16.187-16.958 20.917L56 128.534l-17.957-10.293c-8.24-4.716-14.16-12.148-16.958-20.917h-.028Zm0 103.879a30.097 30.097 0 0 1 0-18.228c2.812-8.769 8.718-16.187 16.958-20.917l17.957-10.293 17.956 10.293c8.24 4.715 14.16 12.148 16.959 20.917a29.884 29.884 0 0 1 0 18.228c-2.799 8.77-8.719 16.187-16.959 20.917l-17.97 10.293-17.97-10.293c-8.24-4.715-14.16-12.147-16.959-20.917h.028Zm0 103.808a29.887 29.887 0 0 1 0-18.229c2.798-8.769 8.718-16.187 16.958-20.916l17.97-10.294 17.972 10.294c8.24 4.715 14.16 12.147 16.958 20.916a30.1 30.1 0 0 1 0 18.229c-2.813 8.769-8.718 16.187-16.958 20.916L56 336.221l-17.957-10.294c-8.24-4.715-14.16-12.147-16.958-20.916h-.028ZM90.93 408.904c-2.813 8.77-8.718 16.188-16.958 20.917L56 440.114l-17.97-10.293c-8.24-4.715-14.16-12.147-16.959-20.917a29.884 29.884 0 0 1 0-18.228c2.798-8.769 8.718-16.187 16.958-20.917l17.957-10.293 17.956 10.293c8.24 4.716 14.16 12.148 16.959 20.917a30.097 30.097 0 0 1 0 18.228h.028Z"/></mask><path d="M105.37 374.072c-5.034-9.157-12.543-16.777-21.697-22.024l-7.368-4.212 7.368-4.212c9.168-5.247 16.677-12.866 21.697-22.024a47.199 47.199 0 0 0 1.547-3.033c6.777-14.289 6.777-31.066 0-45.355a61.318 61.318 0 0 0-1.547-3.034c-5.034-9.157-12.529-16.776-21.697-22.023l-7.298-4.184 7.298-4.183c9.168-5.247 16.663-12.866 21.697-22.024a47.199 47.199 0 0 0 1.547-3.033c6.777-14.29 6.777-31.066 0-45.356a61.73 61.73 0 0 0-1.547-3.033c-5.034-9.157-12.543-16.776-21.697-22.024l-7.368-4.212 7.368-4.212c9.168-5.247 16.663-12.866 21.697-22.024a50.866 50.866 0 0 0 1.547-3.033c6.777-14.29 6.777-31.066 0-45.355a61.425 61.425 0 0 0-1.547-3.034c-5.034-9.157-12.529-16.776-21.697-22.023l-7.368-4.227 15.003-8.596C100.87 22.123 104.273 9.762 98.916 0L56 24.583 13.084.058c-5.357 9.775-1.94 22.124 7.608 27.601l15.003 8.597-7.368 4.226C19.159 45.73 11.65 53.35 6.63 62.506a47.017 47.017 0 0 0-1.547 3.033c-6.777 14.29-6.777 31.066 0 45.356.492 1.02.999 2.041 1.547 3.033 5.034 9.157 12.543 16.777 21.697 22.024l7.368 4.212-7.368 4.212C19.159 149.623 11.65 157.242 6.63 166.4a46.78 46.78 0 0 0-1.547 3.033c-6.777 14.289-6.777 31.066 0 45.355a61.099 61.099 0 0 0 1.547 3.034c5.034 9.157 12.529 16.776 21.697 22.023l7.298 4.184-7.298 4.183c-9.168 5.247-16.663 12.866-21.697 22.024a47.038 47.038 0 0 0-1.547 3.033c-6.777 14.29-6.777 31.066 0 45.356.492 1.02.999 2.041 1.547 3.033 5.034 9.157 12.543 16.776 21.697 22.024l7.368 4.212-7.368 4.212c-9.168 5.247-16.663 12.866-21.697 22.023a51.008 51.008 0 0 0-1.547 3.034c-6.777 14.289-6.777 31.066 0 45.355a61.099 61.099 0 0 0 1.547 3.034c5.034 9.157 12.529 16.776 21.697 22.023l7.368 4.227-15.003 8.596C11.13 465.876 7.727 478.239 13.084 488L56 463.417 98.916 488c5.357-9.776 1.94-22.124-7.608-27.602l-15.003-8.596 7.368-4.227c9.168-5.247 16.677-12.866 21.697-22.023a47.224 47.224 0 0 0 1.547-3.034c6.777-14.289 6.777-31.066 0-45.355a61.318 61.318 0 0 0-1.547-3.034v-.057ZM21.057 97.324a30.098 30.098 0 0 1 0-18.228c2.812-8.77 8.718-16.188 16.958-20.917l17.97-10.293 17.972 10.293c8.24 4.715 14.16 12.147 16.958 20.916a29.885 29.885 0 0 1 0 18.229c-2.799 8.769-8.718 16.187-16.958 20.917L56 128.534l-17.957-10.293c-8.24-4.716-14.16-12.148-16.958-20.917h-.028Zm0 103.879a30.097 30.097 0 0 1 0-18.228c2.812-8.769 8.718-16.187 16.958-20.917l17.957-10.293 17.956 10.293c8.24 4.715 14.16 12.148 16.959 20.917a29.884 29.884 0 0 1 0 18.228c-2.799 8.77-8.719 16.187-16.959 20.917l-17.97 10.293-17.97-10.293c-8.24-4.715-14.16-12.147-16.959-20.917h.028Zm0 103.808a29.887 29.887 0 0 1 0-18.229c2.798-8.769 8.718-16.187 16.958-20.916l17.97-10.294 17.972 10.294c8.24 4.715 14.16 12.147 16.958 20.916a30.1 30.1 0 0 1 0 18.229c-2.813 8.769-8.718 16.187-16.958 20.916L56 336.221l-17.957-10.294c-8.24-4.715-14.16-12.147-16.958-20.916h-.028ZM90.93 408.904c-2.813 8.77-8.718 16.188-16.958 20.917L56 440.114l-17.97-10.293c-8.24-4.715-14.16-12.147-16.959-20.917a29.884 29.884 0 0 1 0-18.228c2.798-8.769 8.718-16.187 16.958-20.917l17.957-10.293 17.956 10.293c8.24 4.716 14.16 12.148 16.959 20.917a30.097 30.097 0 0 1 0 18.228h.028Z" stroke="#fff" stroke-width="4" mask="url('#path-1-inside-1_3932_2106')"/></svg>