<svg width="56" height="57" fill="none" xmlns="http://www.w3.org/2000/svg"><path d="M33.899 56.245H22.065a1.791 1.791 0 0 1-1.784-1.79v-3.219a28.578 28.578 0 0 1-3.094-1.269l-2.259 2.267c-.339.34-.79.52-1.265.52-.383 0-.925-.18-1.264-.52L4.02 43.825a1.786 1.786 0 0 1-.52-1.269c0-.476.181-.929.52-1.269l2.258-2.266a20.776 20.776 0 0 1-1.264-3.105h-3.23A1.791 1.791 0 0 1 0 34.126V22.25c0-.997.813-1.79 1.784-1.79h3.207c.361-1.066.79-2.108 1.265-3.105l-2.259-2.267a1.786 1.786 0 0 1-.519-1.269c0-.476.18-.93.52-1.27l8.378-8.407c.7-.703 1.83-.703 2.53 0l2.258 2.266c.994-.498 2.01-.93 3.094-1.269V1.921c0-.997.813-1.79 1.784-1.79h11.834c.994 0 1.784.815 1.784 1.79v3.218c1.062.363 2.1.793 3.094 1.27l2.259-2.267c.677-.68 1.852-.68 2.53 0l8.378 8.408c.7.702.7 1.836 0 2.538l-2.258 2.267c.497.974.903 2.017 1.264 3.104h3.207c.994 0 1.784.816 1.784 1.79v11.877c0 .997-.813 1.79-1.784 1.79h-3.207a28.777 28.777 0 0 1-1.264 3.105l2.258 2.266c.7.703.7 1.836 0 2.538l-8.379 8.409c-.677.68-1.852.68-2.53 0l-2.258-2.267c-.993.499-2.01.93-3.094 1.27v3.218c0 .997-.813 1.79-1.784 1.79h.023Zm-11.54-2.108H33.56v-3.15c0-.77.497-1.45 1.242-1.7a22.239 22.239 0 0 0 3.207-1.337 1.74 1.74 0 0 1 2.055.317l2.214 2.221 7.927-7.954-2.214-2.221a1.76 1.76 0 0 1-.316-2.063 22.42 22.42 0 0 0 1.333-3.218 1.77 1.77 0 0 1 1.694-1.246h3.139V22.544H50.7a1.79 1.79 0 0 1-1.693-1.246 22.42 22.42 0 0 0-1.333-3.218 1.755 1.755 0 0 1 .316-2.063l2.214-2.22-7.927-7.955-2.214 2.22a1.744 1.744 0 0 1-2.055.318 22.245 22.245 0 0 0-3.207-1.337 1.774 1.774 0 0 1-1.242-1.7v-3.15H22.358v3.15c0 .77-.497 1.45-1.242 1.7-1.106.362-2.19.816-3.207 1.337a1.74 1.74 0 0 1-2.055-.317l-2.213-2.221-7.927 7.954 2.213 2.221a1.76 1.76 0 0 1 .316 2.063 22.41 22.41 0 0 0-1.332 3.218 1.77 1.77 0 0 1-1.694 1.247H2.1v11.24h3.14a1.79 1.79 0 0 1 1.693 1.247 22.41 22.41 0 0 0 1.333 3.218 1.754 1.754 0 0 1-.316 2.063l-2.214 2.22 7.927 7.956 2.214-2.221a1.744 1.744 0 0 1 2.055-.318c1.016.521 2.1.975 3.207 1.337.745.227 1.242.93 1.242 1.7v3.15h-.023Z" fill="url('#paint0_linear_3920_1495')"/><path d="M27.983 45.73c-.316 0-.655-.069-.948-.227l-13.303-6.958a2.03 2.03 0 0 1-1.084-1.813V21.049c0-.703.362-1.383.972-1.745a2.065 2.065 0 0 1 1.987-.068l13.302 6.957a2.029 2.029 0 0 1 1.084 1.813V43.69c0 .702-.361 1.382-.971 1.745a1.925 1.925 0 0 1-1.061.294h.022Zm-11.27-10.222 9.238 4.827V29.253l-9.237-4.827v11.082Z" fill="url('#paint1_linear_3920_1495')"/><path d="M27.982 45.73c-.362 0-.723-.091-1.062-.295-.61-.363-.97-1.043-.97-1.745V28.006c0-.77.428-1.45 1.083-1.813l13.302-6.957c.633-.34 1.378-.295 1.988.068.61.362.97 1.042.97 1.745v15.683c0 .77-.428 1.45-1.083 1.813l-13.302 6.958c-.294.158-.61.226-.949.226h.023Zm2.032-16.477v11.082l9.237-4.827V24.426l-9.237 4.827Z" fill="url('#paint2_linear_3920_1495')"/><path d="m15.607 22.862-1.875-3.626 13.303-6.958a1.965 1.965 0 0 1 1.874 0l13.302 6.958-1.874 3.626-12.354-6.46-12.354 6.46h-.022Z" fill="url('#paint3_linear_3920_1495')"/><defs><linearGradient id="paint0_linear_3920_1495" x1="0" y1="28.186" x2="55.918" y2="28.184" gradientUnits="userSpaceOnUse"><stop stop-color="#0067A8"/><stop offset=".553" stop-color="#0091A6"/><stop offset="1" stop-color="#00B3DF"/></linearGradient><linearGradient id="paint1_linear_3920_1495" x1="12.648" y1="32.371" x2="29.993" y2="32.37" gradientUnits="userSpaceOnUse"><stop stop-color="#0067A8"/><stop offset=".553" stop-color="#0091A6"/><stop offset="1" stop-color="#00B3DF"/></linearGradient><linearGradient id="paint2_linear_3920_1495" x1="25.949" y1="32.366" x2="43.294" y2="32.366" gradientUnits="userSpaceOnUse"><stop stop-color="#0067A8"/><stop offset=".553" stop-color="#0091A6"/><stop offset="1" stop-color="#00B3DF"/></linearGradient><linearGradient id="paint3_linear_3920_1495" x1="13.732" y1="17.451" x2="42.211" y2="17.448" gradientUnits="userSpaceOnUse"><stop stop-color="#0067A8"/><stop offset=".553" stop-color="#0091A6"/><stop offset="1" stop-color="#00B3DF"/></linearGradient></defs></svg>