<svg width="120" height="120" fill="none" xmlns="http://www.w3.org/2000/svg"><circle cx="60" cy="60" r="59.5" stroke="url('#paint0_linear_5109_538')"/><g clip-path="url('#clip0_5109_538')"><path d="M71.597 31.395a.668.668 0 1 0-.197 1.321.668.668 0 0 0 .197-1.322Z" fill="url('#paint1_linear_5109_538')"/><path d="M90.222 34.303 72.65 37.444l.393 2.274c-.465-.692-.966-1.264-1.5-1.7.015-.086.023-.175.023-.265v-.014c.102-.245.16-.505.17-.775 1.295-.258 2.304-1.395 2.48-2.808.22-.188.39-.437.485-.724.172-.52.07-1.087-.274-1.515l-.208-.262-.006-.21a3.396 3.396 0 0 0-1.209-2.563c.665-.611 1.471-1.523 1.493-2.361a1.285 1.285 0 0 0-.465-1.031c-1.05-.89-2.692-.557-4.643.932a3.832 3.832 0 0 0-2.462.1c-.12-.069-.25-.12-.39-.152a1.478 1.478 0 0 0-1.03.153c-.614.335-.9 1.029-.71 1.632-.266.372-.48.784-.625 1.228-.486 1.49-.15 3.04.947 4.367l.019.023s.694.769.877.967c.185.2.41.353.66.453l.003.312v.076l.02 1.345c.002.162.023.32.058.472-1.614.904-2.89 2.931-3.29 5.433-1.035 2.808-1.652 6.44-1.652 10.46 0 .71.021 1.44.064 2.177l.036.647 1.468-.027c-.053.833.017 1.98.491 3.265-.31 1.222-.802 2.9-1.54 4.84H55.71V43.934H34.094v20.28H28v21.606h20.911c0 .068.006.135.014.205.04.362.235.692.536.9l7.404 4.698c.4.255.852.376 1.3.376.792 0 1.574-.382 2.041-1.081a2.455 2.455 0 0 0-.63-3.357l-2.34-1.635.08-.13H69.7V71.418c.877-1.509 1.577-3.002 2.093-4.467 2.536 1.808 4.512 3.876 4.878 8.065l.419 5.586h1.407v2.002l-.715-.052-.303 6.79c-.019.439.137.855.44 1.173.303.318.711.493 1.15.497l8.27.039h.018c1.08 0 1.982-.665 2.302-1.696a2.368 2.368 0 0 0-.953-2.712l-.117-.079-3.766-.682-.156-2.82-.954-.07.013-2.389h1.664l.013-.66c.008-.384.145-9.452-3.82-15.933-1.879-3.068-4.832-6.439-6.396-8.142l.966-.018.02-.364c2.398-.127 4.638-.68 5.73-1.247l.1-.033v.004l1.233-.414h.008l.434-.147.102-.034.197-.068 1.097-.372v-.004c4.538-1.57 4.731-1.86 5.001-2.274.008-.011.014-.025.021-.038L93 50.34l-2.776-16.027v-.01l-.002-.001ZM79.63 53.606a18.728 18.728 0 0 1-4.473.551c-.095 0-.191 0-.285-.004-2.175-.036-4.44-.499-6.072-1.788-3.833-3.028-4.506-5.306-4.045-9.018.01-.083.021-.163.035-.244.305-1.997 1.269-3.653 2.435-4.416a2.92 2.92 0 0 1 .623-.314 2.51 2.51 0 0 1 .364-.1 2.147 2.147 0 0 1 1.346.17l.058.028a3.048 3.048 0 0 1 .698.493c.071.068.142.14.212.217.69.757 1.31 2 1.764 3.843.493 2.008 1.247 3.426 2.096 4.428.011.014.02.027.032.039.259.3.527.565.797.794a6.345 6.345 0 0 0 3.443 1.468c.25.027.48.037.679.037.5 0 .81-.062.81-.062l.56 1.428.251.64.251.64.204.52-.055.031c-.24.137-.606.288-1.069.432-.2.064-.42.125-.655.185h-.004v.002Zm8.74 35.341c-.112.365-.447.754-1.022.748l-8.271-.038a.25.25 0 0 1-.249-.26l.185-4.129.056-1.274.104.008 3.858.285.353.027.054.954.096 1.745 4.518.819c.385.323.422.78.318 1.117v-.002Zm-6.006-6.063-2.516-.187v-2.102h2.53l-.012 2.287h-.002v.002Zm-3.191-3.636h-.831l-.121-1.629h5.753c.046.677.067 1.236.075 1.629h-4.876Zm-1.055-2.98-.102-1.368c-.434-4.963-2.898-7.3-5.797-9.307-.191-.133-.386-.264-.58-.395a63.647 63.647 0 0 0-.598-.395l-.46-.3a72.44 72.44 0 0 1-1.578-1.05c-2.036-1.4-3.133-2.884-3.706-4.204a7.17 7.17 0 0 1-.416-1.266 6.534 6.534 0 0 1-.145-1.931l8.634-.162c.925.977 4.84 5.188 7.058 8.813 2.25 3.677 3.106 8.37 3.428 11.563h-5.74.002v.002Zm-8.421-7.765c-.212.455-.438.902-.675 1.342-.216.4-.442.796-.675 1.185-1.897 3.165-4.276 5.855-6.067 7.663l-4.65-3.136c2.621-3.446 4.424-6.992 5.648-10.023a34.8 34.8 0 0 0 .266-.675 45.243 45.243 0 0 0 1.248-3.696c.653 1 1.587 2.029 2.911 3.021.172.13.35.257.534.384l.434.291.35.237.676.443.146.097.797.522c-.269.798-.587 1.58-.943 2.345Zm-1.35 15.939h-7.336v-2.689a46.938 46.938 0 0 0 5.948-6.314c.494-.634.956-1.266 1.388-1.898v10.9Zm-10.209 0 .515-.845-.534-.43v-.223l.906-1.206.636.454v2.25H58.14Zm.943 5.722c-.328.489-.999.632-1.496.316L50.26 85.83v-.04c0-.093.021-.155.102-.236.02-.019.054-.054.34-.439.117-.158.275-.376.493-.674a570.1 570.1 0 0 0 1.73-2.398l.601-.838.143.113 3.008 2.42.092.074.114.093-.114.187-.212.349-.127.206-.285.468-.413.675-.31.508L58.8 88.66c.484.338.612 1.012.284 1.504h-.002Zm-21.045-5.697v-2.974h1.543v2.974h-1.543Zm-1.35-4.323v4.323h-7.335V65.559h7.336v4.496h4.241v-4.496h7.155v18.908H40.93v-4.323h-4.241Zm-1.24-34.868h6.757v4.497h5.4v-4.497h6.758v18.908h-6.758v-4.322h-5.4v4.322h-6.758V45.278Zm10.808 0v3.148h-2.702v-3.148h2.702Zm0 18.908h-2.702v-2.973h2.702v2.974Zm-8.218 1.375h1.543v3.147h-1.543v-3.147Zm22.77 14.56a34.19 34.19 0 0 1-.765.688l-.017-.014-.187-.133-.55-.393-.208-.148-.341-.243-2.06-1.472-.549-.394-.324-.23c.34-.384.665-.774.983-1.163l4.04 2.723.468.316c-.175.168-.34.322-.491.463h.002Zm-3.844 2.118-.193-.154-1.768-1.423.874-1.173.896.64.933.666.226.16-.484.644-.482.642-.002-.002ZM61.012 67.3v-1.767h.783c-.24.574-.5 1.164-.783 1.767Zm-1.35-1.767v3.147H58.12v-3.147h1.542Zm-.046 4.498c-1.37 2.459-3.11 5.012-5.314 7.4l-.518.561.993.71-.828 1.111-.688-.553-.416.58a712.986 712.986 0 0 1-3.23 4.477l-.09.124h-.091V65.534h7.336v4.496h2.846v.002Zm3.548-16.746c0-2.027.158-3.9.433-5.59.09.317.197.63.324.934.689 1.65 1.936 3.128 4.042 4.79.509.402 1.058.727 1.629.993.144.068.293.132.44.193l-6.425.122-.414.007c-.02-.49-.03-.975-.03-1.449Zm2.288-23.487a3.268 3.268 0 0 1 2.092-2.064c.05-.016.098-.031.149-.044.505-.13 1.039-.091 1.584.117l.363.137.3-.245c1.08-.875 2.561-1.707 3.201-1.193-.02.256-.567 1-1.469 1.737-.073.06-.148.121-.227.18l-.55.442-.854.686-2.03 1.633-.004.003a1.534 1.534 0 0 0-.299 2.06c.046.109.09.232.096.269 0 .119-.044.233-.129.317a.466.466 0 0 1-.326.14h-.007a.466.466 0 0 1-.34-.15l-.34-.373a56.16 56.16 0 0 1-.518-.572c-.784-.956-1.031-2.047-.694-3.078l.002-.002Zm7.408 1.677.02.668.49.613a.267.267 0 0 1-.14.426l-.345.093.005.406c.016 1.08-.748 1.972-1.696 1.985l-.823.012.007.638a1.447 1.447 0 0 0-.29-.03h-.018l-1.691.02c-.118 0-.231.017-.341.046l-.012-.796v-.075l-.006-.29c.23-.093.442-.23.621-.413.34-.345.52-.8.515-1.282-.004-.335-.18-.73-.253-.884l-.03-.066-.045-.058a.181.181 0 0 1 .03-.25l3.076-2.473c.542.326.918.97.928 1.712h-.002v-.002Zm13.671 19.73a70.711 70.711 0 0 1-1.556.557c-.05.018-.102.035-.152.055l-.2.069c-.214.075-.428.148-.639.22-.217.075-.431.146-.638.217l-.061.022c-.031.011-.064.02-.095.03-.05.018-.1.033-.148.05l-.064.022c-.06.019-.118.038-.175.06l-.126-.334-.243-.642-.243-.641-.447-1.184-.19-.505s.007-.004.01-.004c.03-.011.059-.025.09-.038a21.881 21.881 0 0 0 .37-.158c.09-.04.179-.083.268-.126.042-.02.086-.038.127-.06.106-.053.222-.115.34-.18l.161-.091c.139-.08.284-.17.43-.26.2-.125.407-.256.611-.387.428-.276.849-.552 1.201-.766.157-.094.309-.196.469-.285.131-.073.372-.2.49-.04.162.221.052.516-.14.676-.211.177-.464.432-.68.601-.302.237-.273.415.05.3.188-.066 2.181-.824 2.63-.824.066 0 .124.006.172.016.526.123.9 1.341.889 2.094-.004.209-.035.382-.103.486-.044.068-.24.178-.543.316-.442.2-1.109.46-1.867.74v-.006h.002Zm3.504-3.376c-.442-1.099-1.1-1.46-1.574-1.57a2.1 2.1 0 0 0-.48-.053 3.85 3.85 0 0 0-.636.064 1.434 1.434 0 0 0-1.338-.892c-.619 0-1.18.346-2.5 1.202a.898.898 0 0 1-.045.03l-.844.14-1.33.221.136.82s-.006 0-.008.003l-.13.058a20.837 20.837 0 0 1-1.465.56 4.991 4.991 0 0 1-4.155-1.551c-.009-.007-.014-.015-.022-.02l-.116-.666-1.323-7.637 5.106-.912.096.453.467 2.213.266 1.266 1.276-.214 1.75-.293 1.387-.231-.289-1.376-.466-2.213-.083-.393 5.406-.965 2.315 13.369-1.05.189a5.197 5.197 0 0 0-.353-1.596v-.006h.002Zm-7.092-8.112-1.748.293-.467-2.212 1.749-.293.466 2.212Z" fill="url('#paint2_linear_5109_538')"/></g><defs><linearGradient id="paint0_linear_5109_538" x1="0" y1="59.997" x2="120" y2="59.993" gradientUnits="userSpaceOnUse"><stop stop-color="#0067A8"/><stop offset=".553" stop-color="#0091A6"/><stop offset="1" stop-color="#00B3DF"/></linearGradient><linearGradient id="paint1_linear_5109_538" x1="70.83" y1="32.056" x2="72.167" y2="32.056" gradientUnits="userSpaceOnUse"><stop stop-color="#0067A8"/><stop offset=".553" stop-color="#0091A6"/><stop offset="1" stop-color="#00B3DF"/></linearGradient><linearGradient id="paint2_linear_5109_538" x1="28" y1="58.499" x2="93" y2="58.496" gradientUnits="userSpaceOnUse"><stop stop-color="#0067A8"/><stop offset=".553" stop-color="#0091A6"/><stop offset="1" stop-color="#00B3DF"/></linearGradient><clipPath id="clip0_5109_538"><path fill="#fff" transform="translate(28 25)" d="M0 0h65v67H0z"/></clipPath></defs></svg>