<svg width="120" height="120" fill="none" xmlns="http://www.w3.org/2000/svg"><circle cx="60" cy="60" r="59.5" stroke="url('#paint0_linear_5109_535')"/><g clip-path="url('#clip0_5109_535')"><path d="M35.809 53.457c.37 0 .67-.296.67-.66V29.321H83.52v23.476c0 .364.3.66.67.66.37 0 .67-.296.67-.66V28H35.14v24.795c0 .364.3.66.67.66v.002Z" fill="url('#paint1_linear_5109_535')"/><path d="M28.342 54.495 60 73.103l31.658-18.608v-1.24c0-.096-.007-.192-.015-.286l-31.643 18.6-31.644-18.6c-.008.094-.015.19-.015.286v1.24Z" fill="url('#paint2_linear_5109_535')"/><path d="M88.05 48.383c-.369 0-.67.296-.67.66 0 .364.301.66.67.66 1.892 0 3.445 1.44 3.594 3.265l.341-.2a.676.676 0 0 1 .92.229.654.654 0 0 1-.232.904l-1.013.596v32.631c0 1.958-1.62 3.553-3.61 3.553H31.952c-1.989 0-3.609-1.595-3.609-3.553V54.497L27.33 53.9a.654.654 0 0 1-.231-.904.676.676 0 0 1 .919-.228l.34.2c.15-1.825 1.703-3.267 3.594-3.267.37 0 .67-.295.67-.66 0-.363-.3-.659-.67-.659-2.728 0-4.951 2.186-4.951 4.872v33.873C27 89.814 29.221 92 31.95 92h56.099c2.728 0 4.95-2.186 4.95-4.872V53.255c0-2.686-2.222-4.872-4.95-4.872h.002Z" fill="url('#paint3_linear_5109_535')"/><path d="m91.66 54.495 1.013-.595a.654.654 0 0 0 .231-.905.676.676 0 0 0-.919-.228l-.34.2c.007.094.015.19.015.286v1.242Z" fill="url('#paint4_linear_5109_535')"/><path d="M27.097 52.995a.654.654 0 0 0 .231.904l1.013.596v-1.24c0-.096.008-.192.016-.287l-.341-.2a.676.676 0 0 0-.92.229v-.002Z" fill="url('#paint5_linear_5109_535')"/><path d="M77.983 35.331H42.018c-.37 0-.67.296-.67.66 0 .363.3.66.67.66h35.965c.37 0 .67-.297.67-.66 0-.364-.3-.66-.67-.66Z" fill="url('#paint6_linear_5109_535')"/><path d="M77.983 41.42H42.018c-.37 0-.67.296-.67.66 0 .363.3.66.67.66h35.965c.37 0 .67-.297.67-.66 0-.364-.3-.66-.67-.66Z" fill="url('#paint7_linear_5109_535')"/><path d="M78.653 48.169c0-.364-.3-.66-.67-.66H42.018c-.37 0-.67.296-.67.66 0 .364.3.66.67.66h35.965c.37 0 .67-.296.67-.66Z" fill="url('#paint8_linear_5109_535')"/><path d="M75.656 54.256c0-.364-.3-.66-.67-.66H45.012c-.37 0-.67.296-.67.66 0 .364.3.66.67.66h29.974c.37 0 .67-.296.67-.66Z" fill="url('#paint9_linear_5109_535')"/><path d="M53.567 59.685c-.37 0-.67.296-.67.66 0 .363.3.66.67.66h12.872c.37 0 .67-.297.67-.66 0-.364-.3-.66-.67-.66H53.567Z" fill="url('#paint10_linear_5109_535')"/><path d="m52.233 76.134-17.48 10.275a.654.654 0 0 0-.232.904.674.674 0 0 0 .919.228l17.48-10.275a.654.654 0 0 0 .232-.904.676.676 0 0 0-.919-.228Z" fill="url('#paint11_linear_5109_535')"/><path d="m67.08 77.266 17.481 10.275a.674.674 0 0 0 .919-.228.654.654 0 0 0-.231-.904L67.768 76.133a.676.676 0 0 0-.92.228.654.654 0 0 0 .232.904Z" fill="url('#paint12_linear_5109_535')"/></g><defs><linearGradient id="paint0_linear_5109_535" x1="0" y1="59.997" x2="120" y2="59.993" gradientUnits="userSpaceOnUse"><stop stop-color="#0067A8"/><stop offset=".553" stop-color="#0091A6"/><stop offset="1" stop-color="#00B3DF"/></linearGradient><linearGradient id="paint1_linear_5109_535" x1="35.139" y1="40.728" x2="84.86" y2="40.724" gradientUnits="userSpaceOnUse"><stop stop-color="#0067A8"/><stop offset=".553" stop-color="#0091A6"/><stop offset="1" stop-color="#00B3DF"/></linearGradient><linearGradient id="paint2_linear_5109_535" x1="28.342" y1="63.036" x2="91.659" y2="63.029" gradientUnits="userSpaceOnUse"><stop stop-color="#0067A8"/><stop offset=".553" stop-color="#0091A6"/><stop offset="1" stop-color="#00B3DF"/></linearGradient><linearGradient id="paint3_linear_5109_535" x1="27" y1="70.19" x2="92.999" y2="70.187" gradientUnits="userSpaceOnUse"><stop stop-color="#0067A8"/><stop offset=".553" stop-color="#0091A6"/><stop offset="1" stop-color="#00B3DF"/></linearGradient><linearGradient id="paint4_linear_5109_535" x1="91.644" y1="53.584" x2="92.999" y2="53.584" gradientUnits="userSpaceOnUse"><stop stop-color="#0067A8"/><stop offset=".553" stop-color="#0091A6"/><stop offset="1" stop-color="#00B3DF"/></linearGradient><linearGradient id="paint5_linear_5109_535" x1="27.002" y1="53.585" x2="28.357" y2="53.585" gradientUnits="userSpaceOnUse"><stop stop-color="#0067A8"/><stop offset=".553" stop-color="#0091A6"/><stop offset="1" stop-color="#00B3DF"/></linearGradient><linearGradient id="paint6_linear_5109_535" x1="41.348" y1="35.991" x2="78.653" y2="35.954" gradientUnits="userSpaceOnUse"><stop stop-color="#0067A8"/><stop offset=".553" stop-color="#0091A6"/><stop offset="1" stop-color="#00B3DF"/></linearGradient><linearGradient id="paint7_linear_5109_535" x1="41.348" y1="42.08" x2="78.653" y2="42.043" gradientUnits="userSpaceOnUse"><stop stop-color="#0067A8"/><stop offset=".553" stop-color="#0091A6"/><stop offset="1" stop-color="#00B3DF"/></linearGradient><linearGradient id="paint8_linear_5109_535" x1="41.348" y1="48.169" x2="78.653" y2="48.133" gradientUnits="userSpaceOnUse"><stop stop-color="#0067A8"/><stop offset=".553" stop-color="#0091A6"/><stop offset="1" stop-color="#00B3DF"/></linearGradient><linearGradient id="paint9_linear_5109_535" x1="44.342" y1="54.256" x2="75.656" y2="54.23" gradientUnits="userSpaceOnUse"><stop stop-color="#0067A8"/><stop offset=".553" stop-color="#0091A6"/><stop offset="1" stop-color="#00B3DF"/></linearGradient><linearGradient id="paint10_linear_5109_535" x1="52.897" y1="60.345" x2="67.109" y2="60.339" gradientUnits="userSpaceOnUse"><stop stop-color="#0067A8"/><stop offset=".553" stop-color="#0091A6"/><stop offset="1" stop-color="#00B3DF"/></linearGradient><linearGradient id="paint11_linear_5109_535" x1="34.426" y1="81.838" x2="53.247" y2="81.837" gradientUnits="userSpaceOnUse"><stop stop-color="#0067A8"/><stop offset=".553" stop-color="#0091A6"/><stop offset="1" stop-color="#00B3DF"/></linearGradient><linearGradient id="paint12_linear_5109_535" x1="66.754" y1="81.838" x2="85.575" y2="81.837" gradientUnits="userSpaceOnUse"><stop stop-color="#0067A8"/><stop offset=".553" stop-color="#0091A6"/><stop offset="1" stop-color="#00B3DF"/></linearGradient><clipPath id="clip0_5109_535"><path fill="#fff" transform="translate(27 28)" d="M0 0h66v64H0z"/></clipPath></defs></svg>