<svg width="120" height="120" fill="none" xmlns="http://www.w3.org/2000/svg"><circle cx="60" cy="60" r="59.5" stroke="url('#paint0_linear_5109_536')"/><g clip-path="url('#clip0_5109_536')"><path d="M31.757 66.61a2.204 2.204 0 0 0-1.83-.17l-7.339 2.568c-.773.271-1.533-.435-1.298-1.206l2.404-7.86a2.072 2.072 0 0 0-.174-1.627 21.532 21.532 0 0 1-2.798-10.794c.087-11.953 10.365-21.88 22.573-21.815 7.532.04 14.183 3.713 18.225 9.317.267-.04.536-.079.804-.113a23.059 23.059 0 0 0-2.771-3.27C55.21 27.392 49.438 25.032 43.3 25h-.126c-6.052 0-11.808 2.343-16.218 6.604-4.442 4.291-6.914 9.944-6.957 15.913a22.32 22.32 0 0 0 2.887 11.142c.184.324.225.716.114 1.08l-2.404 7.86a1.655 1.655 0 0 0 .465 1.71c.475.442 1.151.581 1.77.365l7.338-2.568c.407-.141.85-.1 1.218.112 1.76 1.02 3.645 1.8 5.605 2.33a26 26 0 0 1-.151-.777 22.625 22.625 0 0 1-5.086-2.16h.002Z" fill="url('#paint1_linear_5109_536')"/><path d="M32.128 66a2.917 2.917 0 0 0-1.466-.393c-.328 0-.66.055-.977.166l-7.34 2.568a.273.273 0 0 1-.285-.059.258.258 0 0 1-.074-.275l2.404-7.86a2.786 2.786 0 0 0-.234-2.173 20.926 20.926 0 0 1-2.707-10.447c.04-5.592 2.358-10.889 6.526-14.915 4.167-4.027 9.609-6.222 15.322-6.195 5.754.03 11.166 2.241 15.238 6.225a21.74 21.74 0 0 1 2.201 2.515c.263-.046.525-.091.79-.133-4.043-5.605-10.694-9.277-18.225-9.318-12.211-.066-22.487 9.862-22.574 21.815a21.51 21.51 0 0 0 2.799 10.794 2.07 2.07 0 0 1 .173 1.627l-2.404 7.86c-.235.771.523 1.475 1.298 1.206l7.34-2.567a2.196 2.196 0 0 1 1.829.17 22.486 22.486 0 0 0 5.086 2.16 32.493 32.493 0 0 1-.128-.776A21.971 21.971 0 0 1 32.13 66h-.002Z" fill="url('#paint2_linear_5109_536')"/><path d="M23.948 47.685c0-10.394 8.608-18.82 19.225-18.82 5.998 0 11.355 2.688 14.881 6.903.25-.069.502-.136.754-.199-3.656-4.513-9.306-7.413-15.633-7.413-11 0-19.948 8.761-19.948 19.529 0 8.477 5.547 15.709 13.272 18.401-.02-.254-.037-.511-.051-.766-7.3-2.67-12.498-9.558-12.498-17.635h-.002Z" fill="url('#paint3_linear_5109_536')"/><path d="M24.67 47.685c0-9.987 8.301-18.113 18.503-18.113 5.652 0 10.72 2.495 14.116 6.418.254-.077.508-.151.762-.222-3.526-4.215-8.88-6.904-14.88-6.904-10.617 0-19.226 8.427-19.226 18.82 0 8.078 5.198 14.967 12.498 17.636a24.05 24.05 0 0 1-.03-.773c-6.87-2.649-11.746-9.208-11.746-16.862h.004Z" fill="url('#paint4_linear_5109_536')"/><path d="M95.997 63.622c-.056-7.676-3.233-14.942-8.945-20.461-5.673-5.481-13.073-8.494-20.854-8.494h-.163a30.824 30.824 0 0 0-3.706.243c.153.218.302.439.446.661 1.071-.123 2.16-.192 3.264-.198 15.813-.085 29.12 12.771 29.235 28.251a27.865 27.865 0 0 1-3.624 13.979 2.679 2.679 0 0 0-.225 2.106l3.113 10.179c.306.997-.678 1.91-1.68 1.56l-9.506-3.326a2.849 2.849 0 0 0-2.37.22c-4.396 2.548-9.538 3.994-15.028 3.95-13.678-.11-25.343-9.89-28.172-22.548-.265-.062-.527-.13-.79-.2 1.139 5.469 3.906 10.545 8.073 14.683C50.697 89.82 58.113 92.935 65.948 93h.246c5.343 0 10.58-1.398 15.156-4.05a2.116 2.116 0 0 1 1.759-.163l9.505 3.327c.723.252 1.515.089 2.07-.43a1.943 1.943 0 0 0 .546-2.002l-3.112-10.18a2 2 0 0 1 .165-1.56 28.706 28.706 0 0 0 3.714-14.326v.006Z" fill="url('#paint5_linear_5109_536')"/><path d="M36.5 66.086c.052.64.124 1.277.217 1.908.256.08.513.152.773.22a27.007 27.007 0 0 1-.242-1.88c-.252-.078-.5-.16-.748-.248Z" fill="url('#paint6_linear_5109_536')"/><path d="M59.288 36.188a29.69 29.69 0 0 1 1.908-.388 22.77 22.77 0 0 0-.461-.641c-.65.117-1.29.253-1.926.412.165.203.324.41.48.62v-.003Z" fill="url('#paint7_linear_5109_536')"/><path d="M37.625 68.98a24.729 24.729 0 0 1-.781-.209c.047.261.097.52.15.777.263.071.526.138.79.2-.058-.254-.11-.511-.159-.768Z" fill="url('#paint8_linear_5109_536')"/><path d="M61.976 35.677c.264-.038.531-.073.8-.103a23.503 23.503 0 0 0-.447-.662c-.268.035-.537.073-.804.113.155.215.306.431.453.652h-.002Z" fill="url('#paint9_linear_5109_536')"/><path d="M61.195 35.798c.259-.044.519-.085.782-.121-.147-.22-.298-.437-.453-.652-.265.04-.527.085-.79.134.157.21.313.425.461.641v-.002Z" fill="url('#paint10_linear_5109_536')"/><path d="M36.717 67.995c.04.259.083.518.128.777.258.074.519.143.781.208-.05-.253-.095-.508-.136-.765a25.75 25.75 0 0 1-.773-.22Z" fill="url('#paint11_linear_5109_536')"/><path d="M57.787 36.59a17.482 17.482 0 0 0-.496-.597 29.789 29.789 0 0 0-12.155 7.217c-5.582 5.465-8.684 12.728-8.73 20.455 0 .295 0 .589.01.882.242.093.486.18.734.265-.014-.378-.022-.76-.018-1.143.076-12.779 8.757-23.561 20.657-27.08h-.002Z" fill="url('#paint12_linear_5109_536')"/><path d="M36.447 65.32c.015.257.031.512.052.767.248.087.496.17.748.246a30.594 30.594 0 0 1-.06-.76 17.58 17.58 0 0 1-.74-.253Z" fill="url('#paint13_linear_5109_536')"/><path d="M58.542 36.377c.248-.067.496-.13.747-.189a28.115 28.115 0 0 0-.48-.619c-.252.063-.504.13-.754.199.167.2.33.402.487.609Z" fill="url('#paint14_linear_5109_536')"/><path d="M57.787 36.589c.25-.075.502-.146.756-.212-.159-.207-.32-.41-.487-.61-.257.071-.51.146-.763.223.17.196.335.395.496.597l-.002.002Z" fill="url('#paint15_linear_5109_536')"/><path d="M36.416 64.544c.006.26.017.516.031.773.244.09.492.174.74.253a23.446 23.446 0 0 1-.037-.762 18.466 18.466 0 0 1-.734-.266v.002Z" fill="url('#paint16_linear_5109_536')"/><path d="M66.042 36.086h.155c7.4 0 14.439 2.867 19.84 8.085 5.437 5.254 8.461 12.166 8.515 19.463a27.31 27.31 0 0 1-3.532 13.631 3.392 3.392 0 0 0-.286 2.653l3.113 10.179a.541.541 0 0 1-.155.568.569.569 0 0 1-.59.122l-9.504-3.327a3.583 3.583 0 0 0-2.983.278c-4.42 2.561-9.484 3.89-14.653 3.85-7.449-.06-14.503-3.025-19.864-8.35-3.8-3.776-6.378-8.37-7.542-13.323-.258-.051-.517-.108-.773-.168 2.83 12.66 14.497 22.438 28.173 22.547a29.418 29.418 0 0 0 15.027-3.95 2.863 2.863 0 0 1 2.37-.22l9.506 3.326c1.002.35 1.984-.562 1.68-1.56l-3.112-10.179a2.68 2.68 0 0 1 .225-2.106 27.865 27.865 0 0 0 3.623-13.979c-.114-15.48-13.422-28.336-29.235-28.25a29.942 29.942 0 0 0-3.263.198c.142.218.279.44.413.665.943-.097 1.895-.15 2.855-.153h-.003Z" fill="url('#paint17_linear_5109_536')"/><path d="M59.733 36.807a29.309 29.309 0 0 1 1.892-.364 21.568 21.568 0 0 0-.428-.645c-.643.11-1.28.239-1.908.388.153.205.302.411.447.62l-.003.002Z" fill="url('#paint18_linear_5109_536')"/><path d="M37.248 66.334c.058.633.14 1.26.242 1.881.252.067.504.13.758.188a25.432 25.432 0 0 1-.254-1.86c-.25-.066-.498-.135-.744-.21h-.002Z" fill="url('#paint19_linear_5109_536')"/><path d="M62.398 36.333c.263-.035.527-.067.79-.094-.135-.224-.27-.445-.413-.665-.267.03-.534.065-.8.103.144.216.285.435.421.656h.002Z" fill="url('#paint20_linear_5109_536')"/><path d="M38.39 69.156a23.231 23.231 0 0 1-.765-.176c.05.257.103.514.16.769.255.06.514.115.772.168-.06-.253-.116-.504-.167-.759v-.002Z" fill="url('#paint21_linear_5109_536')"/><path d="M38.249 68.403a24.402 24.402 0 0 1-.759-.188c.042.257.087.51.137.765.254.062.508.121.764.176-.051-.251-.099-.502-.142-.755v.002Z" fill="url('#paint22_linear_5109_536')"/><path d="M61.623 36.444c.257-.04.515-.08.773-.112-.136-.22-.277-.439-.421-.655-.26.036-.521.077-.782.121.147.213.29.43.428.646h.002Z" fill="url('#paint23_linear_5109_536')"/><path d="M46.159 44.211a28.35 28.35 0 0 1 12.084-7.02 18.393 18.393 0 0 0-.459-.602c-11.9 3.519-20.58 14.299-20.657 27.08 0 .382.006.763.019 1.143.241.08.485.158.73.23-.021-.455-.03-.91-.028-1.367.044-7.35 2.993-14.262 8.307-19.462h.004v-.002Z" fill="url('#paint24_linear_5109_536')"/><path d="M58.993 36.988c.246-.063.494-.123.742-.18-.144-.21-.293-.417-.446-.619-.25.06-.498.123-.746.188.155.2.304.405.45.611Z" fill="url('#paint25_linear_5109_536')"/><path d="M37.188 65.573c.016.255.035.508.06.76.245.075.493.144.744.21a29.598 29.598 0 0 1-.067-.748 18.24 18.24 0 0 1-.737-.222Z" fill="url('#paint26_linear_5109_536')"/><path d="M58.244 37.19c.248-.07.496-.137.746-.202-.147-.206-.295-.41-.45-.611-.255.067-.505.137-.757.212.157.197.31.397.459.601h.002Z" fill="url('#paint27_linear_5109_536')"/><path d="M37.15 64.81c.009.254.023.51.038.762.243.08.49.154.737.223-.018-.251-.035-.502-.045-.755a16.93 16.93 0 0 1-.73-.23Z" fill="url('#paint28_linear_5109_536')"/><path d="M66.203 39.462c13.75 0 24.899 10.912 24.899 24.375S79.956 88.21 66.203 88.21c-11.448 0-21.09-7.563-23.997-17.863a24.07 24.07 0 0 1-.759-.043c2.92 10.707 12.911 18.616 24.756 18.616 14.129 0 25.622-11.251 25.622-25.082 0-13.831-11.493-25.083-25.622-25.083-.568 0-1.132.02-1.692.057.099.229.196.46.287.692.465-.026.934-.038 1.405-.038v-.005Z" fill="url('#paint29_linear_5109_536')"/><path d="M41.535 67.147c-.248-.02-.494-.045-.74-.073.078.6.18 1.195.304 1.784.25.022.5.043.75.057a23.797 23.797 0 0 1-.314-1.768Z" fill="url('#paint30_linear_5109_536')"/><path d="M61.468 39.905a25.53 25.53 0 0 1 1.823-.275 18.414 18.414 0 0 0-.298-.678c-.618.077-1.23.174-1.833.294.108.218.209.439.308.661v-.002Z" fill="url('#paint31_linear_5109_536')"/><path d="M64.798 39.503c-.09-.233-.188-.463-.287-.692-.256.016-.512.036-.769.06.102.227.2.456.294.685.252-.023.506-.04.76-.053h.002Z" fill="url('#paint32_linear_5109_536')"/><path d="M42.014 69.63c-.252-.013-.504-.031-.754-.051.058.242.122.483.186.724.252.018.504.032.758.042-.066-.236-.13-.477-.19-.718v.002Z" fill="url('#paint33_linear_5109_536')"/><path d="M64.038 39.555c-.093-.23-.192-.459-.294-.683-.25.024-.5.05-.748.08.103.225.203.452.298.678.248-.028.496-.052.746-.075h-.002Z" fill="url('#paint34_linear_5109_536')"/><path d="M41.848 68.915c-.25-.014-.5-.034-.75-.057.05.241.105.482.163.72.25.02.502.04.754.051a21.26 21.26 0 0 1-.167-.714Z" fill="url('#paint35_linear_5109_536')"/><path d="M60.03 40.22a18.561 18.561 0 0 0-.318-.648c-10.995 2.82-19.13 12.629-19.13 24.265 0 .6.023 1.198.066 1.79.242.033.486.061.73.085a24.494 24.494 0 0 1-.073-1.873c0-11.375 7.96-20.929 18.726-23.618v-.002Z" fill="url('#paint36_linear_5109_536')"/><path d="M60.75 40.05c.237-.052.477-.1.719-.145-.1-.222-.2-.443-.308-.661-.242.046-.484.097-.724.151.11.217.213.435.315.656h-.002Z" fill="url('#paint37_linear_5109_536')"/><path d="M41.445 66.428a22.05 22.05 0 0 1-.736-.076c.025.24.054.481.085.722.246.028.492.052.74.073a20.8 20.8 0 0 1-.09-.719Z" fill="url('#paint38_linear_5109_536')"/><path d="M40.647 65.627c.016.243.037.484.062.725.243.03.49.054.735.077-.025-.24-.05-.478-.068-.717-.244-.022-.488-.05-.73-.085Z" fill="url('#paint39_linear_5109_536')"/><path d="M60.03 40.219c.239-.059.479-.115.72-.168-.099-.22-.204-.439-.314-.656-.243.055-.483.114-.725.176.11.215.217.43.318.648Z" fill="url('#paint40_linear_5109_536')"/><path d="M66.203 40.17c13.33 0 24.175 10.617 24.175 23.667S79.534 87.503 66.203 87.503c-11.018 0-20.338-7.254-23.24-17.137a23.83 23.83 0 0 1-.76-.018c2.91 10.3 12.552 17.863 23.998 17.863 13.75 0 24.898-10.912 24.898-24.374 0-13.463-11.146-24.375-24.898-24.375-.472 0-.94.015-1.406.039.091.23.178.463.26.696.38-.018.761-.027 1.146-.027h.002Z" fill="url('#paint41_linear_5109_536')"/><path d="M63.562 40.314a27.734 27.734 0 0 0-.27-.684 25.82 25.82 0 0 0-1.823.275c.099.22.194.445.283.67a24.14 24.14 0 0 1 1.808-.261h.002Z" fill="url('#paint42_linear_5109_536')"/><path d="M42.271 67.191c-.248-.01-.494-.026-.738-.047.083.597.188 1.186.314 1.769.25.014.5.024.75.03-.13-.576-.24-1.161-.324-1.754l-.002.002Z" fill="url('#paint43_linear_5109_536')"/><path d="M65.058 40.199c-.083-.233-.17-.465-.26-.696-.255.014-.509.032-.76.053.092.226.179.457.264.687.25-.018.502-.034.756-.046v.002Z" fill="url('#paint44_linear_5109_536')"/><path d="M42.768 69.654a18.502 18.502 0 0 1-.754-.027c.06.241.124.48.19.719.252.01.506.016.76.018a25.605 25.605 0 0 1-.196-.71Z" fill="url('#paint45_linear_5109_536')"/><path d="M42.596 68.945c-.25-.006-.5-.016-.75-.03.051.239.107.477.167.714.25.012.502.02.755.027a27.66 27.66 0 0 1-.172-.709v-.002Z" fill="url('#paint46_linear_5109_536')"/><path d="M64.302 40.245c-.085-.23-.172-.46-.265-.687-.25.02-.498.046-.746.075.095.226.186.453.27.683.247-.026.493-.05.74-.068v-.002Z" fill="url('#paint47_linear_5109_536')"/><path d="M60.32 40.88a17.369 17.369 0 0 0-.29-.66c-10.764 2.688-18.725 12.242-18.725 23.617 0 .631.025 1.254.072 1.873.242.023.486.04.732.055a23.809 23.809 0 0 1-.08-1.928c0-11.063 7.795-20.377 18.29-22.956Z" fill="url('#paint48_linear_5109_536')"/><path d="M61.037 40.717c.238-.051.476-.1.715-.142-.09-.225-.186-.45-.283-.67-.242.045-.48.093-.719.146.1.22.196.441.287.666Z" fill="url('#paint49_linear_5109_536')"/><path d="M42.18 66.479c-.247-.012-.493-.03-.737-.053.027.241.056.48.09.718.243.02.49.035.737.047a20.054 20.054 0 0 1-.093-.712h.002Z" fill="url('#paint50_linear_5109_536')"/><path d="M42.109 65.765c-.246-.014-.49-.032-.732-.055.019.241.041.48.068.717.244.022.488.04.736.052a20.545 20.545 0 0 1-.07-.714h-.002Z" fill="url('#paint51_linear_5109_536')"/><path d="M60.319 40.88c.237-.058.477-.113.717-.163-.091-.225-.188-.445-.287-.666-.242.053-.482.107-.722.168.102.219.199.44.29.662h.002Z" fill="url('#paint52_linear_5109_536')"/><path d="m66.218 51.584 2.635 1.436c1.189.65 2.07 1.692 2.48 2.932a4.133 4.133 0 0 1 0 2.634c-.409 1.237-1.29 2.279-2.478 2.928l-2.635 1.437-2.635-1.437a5.412 5.412 0 0 1-1.354-1.054c-.31.435-.636.862-.977 1.279.454.443.971.823 1.537 1.13l1.788.976-1.785.973a6.873 6.873 0 0 0-2.681 2.596l-.01.018a2.43 2.43 0 0 0-.174.33 5.959 5.959 0 0 0-.006 5.321c.058.113.118.233.194.366a6.854 6.854 0 0 0 2.679 2.59l1.765.98-2.789 1.517a2.056 2.056 0 0 0-1.002 2.345l5.421-2.977 5.424 2.977a2.076 2.076 0 0 0-1.009-2.35l-2.784-1.515 1.76-.977a7.005 7.005 0 0 0 2.686-2.598l.148-.257h.027c.015-.028.027-.058.044-.09.839-1.702.839-3.637.006-5.322-.06-.115-.12-.235-.194-.366a6.854 6.854 0 0 0-2.679-2.59l-1.788-.975 1.786-.975a7.003 7.003 0 0 0 2.68-2.596l.011-.019c.06-.093.112-.192.174-.33.839-1.7.839-3.635.006-5.32-.058-.114-.118-.233-.195-.367a6.874 6.874 0 0 0-2.676-2.59l-1.781-.973 2.785-1.54a2.058 2.058 0 0 0 1.005-2.346l-5.376 2.95a21.15 21.15 0 0 1-.28 1.978l.251-.137-.004.008Zm2.635 14.606c1.189.65 2.07 1.691 2.48 2.931a4.133 4.133 0 0 1 0 2.635c-.409 1.236-1.29 2.278-2.478 2.927L66.22 76.12l-2.635-1.437c-1.188-.649-2.069-1.69-2.48-2.931a4.135 4.135 0 0 1 0-2.634c.41-1.237 1.29-2.279 2.478-2.928l2.635-1.437 2.635 1.437Z" fill="url('#paint53_linear_5109_536')"/><path d="m64.57 50.677-1.78.971c-.034.019-.063.039-.096.055a18.86 18.86 0 0 1-.833 2.804 5.362 5.362 0 0 1 1.72-1.489l.705-.384c.295-1.18.485-2.386.566-3.61l-1.736-.953c-.013.587-.05 1.166-.114 1.738l1.569.866v.002Z" fill="url('#paint54_linear_5109_536')"/><path d="M61.105 58.582a4.115 4.115 0 0 1-.147-2.058 19.623 19.623 0 0 1-1.44 2.343c.099.357.231.707.398 1.046.058.114.118.233.195.367.066.113.136.222.206.331.368-.46.714-.932 1.038-1.416a5.305 5.305 0 0 1-.254-.61h.004v-.003Z" fill="url('#paint55_linear_5109_536')"/><path d="M65.968 51.721c.124-.653.217-1.313.28-1.978l-.045.024-.653-.358c-.078.938-.219 1.863-.417 2.767l.835-.455Z" fill="url('#paint56_linear_5109_536')"/><path d="M61.752 59.879a22.21 22.21 0 0 1-.992 1.323c.155.186.318.368.492.536.34-.416.667-.843.977-1.278a5.199 5.199 0 0 1-.477-.583v.002Z" fill="url('#paint57_linear_5109_536')"/><path d="M61.358 59.193c-.325.484-.672.957-1.038 1.417.137.206.283.402.44.59.348-.428.678-.87.993-1.323a5.033 5.033 0 0 1-.395-.686v.002Z" fill="url('#paint58_linear_5109_536')"/><path d="M65.13 52.177c.199-.905.34-1.83.418-2.768l-.695-.383c-.08 1.224-.27 2.43-.566 3.61l.843-.46Z" fill="url('#paint59_linear_5109_536')"/><path d="m61.67 47.28-.891-.49c-.225.832.103 1.74.843 2.246a18.329 18.329 0 0 0 .046-1.758h.002v.002Z" fill="url('#paint60_linear_5109_536')"/><path d="m60.108 54.244-.01.019a2.43 2.43 0 0 0-.174.33 6.13 6.13 0 0 0-.574 1.873 17.89 17.89 0 0 0 1.405-3.142 6.6 6.6 0 0 0-.647.922v-.002Z" fill="url('#paint61_linear_5109_536')"/><path d="m63.116 48.073-.719-.394v.004c0 .589-.029 1.171-.082 1.746l.688.38c.064-.572.101-1.151.113-1.738v.002Z" fill="url('#paint62_linear_5109_536')"/><path d="M61.105 55.948c.172-.52.432-1.004.759-1.439.345-.904.626-1.843.833-2.804-.31.174-.602.37-.879.587a18.564 18.564 0 0 1-2.488 5.598c.035.33.1.656.188.977a19.614 19.614 0 0 0 1.44-2.342c.036-.195.083-.389.148-.577Z" fill="url('#paint63_linear_5109_536')"/><path d="m62.398 47.679-.728-.4c.002.135.007.268.007.404 0 .455-.019.906-.052 1.353.052.037.108.071.163.102l.53.291c.053-.575.082-1.157.082-1.746v-.004h-.002Z" fill="url('#paint64_linear_5109_536')"/><path d="M60.755 53.321a17.885 17.885 0 0 1-1.405 3.143 5.972 5.972 0 0 0-.023 1.424 18.464 18.464 0 0 0 2.488-5.598c-.39.305-.746.651-1.06 1.031Z" fill="url('#paint65_linear_5109_536')"/></g><defs><linearGradient id="paint0_linear_5109_536" x1="0" y1="59.997" x2="120" y2="59.993" gradientUnits="userSpaceOnUse"><stop stop-color="#0067A8"/><stop offset=".553" stop-color="#0091A6"/><stop offset="1" stop-color="#00B3DF"/></linearGradient><linearGradient id="paint1_linear_5109_536" x1="19.998" y1="47.386" x2="62.324" y2="47.385" gradientUnits="userSpaceOnUse"><stop stop-color="#0067A8"/><stop offset=".553" stop-color="#0091A6"/><stop offset="1" stop-color="#00B3DF"/></linearGradient><linearGradient id="paint2_linear_5109_536" x1="20.727" y1="47.385" x2="61.526" y2="47.384" gradientUnits="userSpaceOnUse"><stop stop-color="#0067A8"/><stop offset=".553" stop-color="#0091A6"/><stop offset="1" stop-color="#00B3DF"/></linearGradient><linearGradient id="paint3_linear_5109_536" x1="23.227" y1="47.12" x2="58.808" y2="47.119" gradientUnits="userSpaceOnUse"><stop stop-color="#0067A8"/><stop offset=".553" stop-color="#0091A6"/><stop offset="1" stop-color="#00B3DF"/></linearGradient><linearGradient id="paint4_linear_5109_536" x1="23.945" y1="47.091" x2="58.051" y2="47.09" gradientUnits="userSpaceOnUse"><stop stop-color="#0067A8"/><stop offset=".553" stop-color="#0091A6"/><stop offset="1" stop-color="#00B3DF"/></linearGradient><linearGradient id="paint5_linear_5109_536" x1="36.992" y1="63.832" x2="95.998" y2="63.83" gradientUnits="userSpaceOnUse"><stop stop-color="#0067A8"/><stop offset=".553" stop-color="#0091A6"/><stop offset="1" stop-color="#00B3DF"/></linearGradient><linearGradient id="paint6_linear_5109_536" x1="36.5" y1="67.151" x2="37.49" y2="67.151" gradientUnits="userSpaceOnUse"><stop stop-color="#0067A8"/><stop offset=".553" stop-color="#0091A6"/><stop offset="1" stop-color="#00B3DF"/></linearGradient><linearGradient id="paint7_linear_5109_536" x1="58.809" y1="35.675" x2="61.196" y2="35.674" gradientUnits="userSpaceOnUse"><stop stop-color="#0067A8"/><stop offset=".553" stop-color="#0091A6"/><stop offset="1" stop-color="#00B3DF"/></linearGradient><linearGradient id="paint8_linear_5109_536" x1="36.844" y1="69.26" x2="37.784" y2="69.26" gradientUnits="userSpaceOnUse"><stop stop-color="#0067A8"/><stop offset=".553" stop-color="#0091A6"/><stop offset="1" stop-color="#00B3DF"/></linearGradient><linearGradient id="paint9_linear_5109_536" x1="61.525" y1="35.294" x2="62.776" y2="35.294" gradientUnits="userSpaceOnUse"><stop stop-color="#0067A8"/><stop offset=".553" stop-color="#0091A6"/><stop offset="1" stop-color="#00B3DF"/></linearGradient><linearGradient id="paint10_linear_5109_536" x1="60.734" y1="35.413" x2="61.977" y2="35.413" gradientUnits="userSpaceOnUse"><stop stop-color="#0067A8"/><stop offset=".553" stop-color="#0091A6"/><stop offset="1" stop-color="#00B3DF"/></linearGradient><linearGradient id="paint11_linear_5109_536" x1="36.717" y1="68.487" x2="37.626" y2="68.487" gradientUnits="userSpaceOnUse"><stop stop-color="#0067A8"/><stop offset=".553" stop-color="#0091A6"/><stop offset="1" stop-color="#00B3DF"/></linearGradient><linearGradient id="paint12_linear_5109_536" x1="36.406" y1="50.402" x2="57.789" y2="50.401" gradientUnits="userSpaceOnUse"><stop stop-color="#0067A8"/><stop offset=".553" stop-color="#0091A6"/><stop offset="1" stop-color="#00B3DF"/></linearGradient><linearGradient id="paint13_linear_5109_536" x1="36.447" y1="65.827" x2="37.247" y2="65.827" gradientUnits="userSpaceOnUse"><stop stop-color="#0067A8"/><stop offset=".553" stop-color="#0091A6"/><stop offset="1" stop-color="#00B3DF"/></linearGradient><linearGradient id="paint14_linear_5109_536" x1="58.055" y1="35.973" x2="59.289" y2="35.973" gradientUnits="userSpaceOnUse"><stop stop-color="#0067A8"/><stop offset=".553" stop-color="#0091A6"/><stop offset="1" stop-color="#00B3DF"/></linearGradient><linearGradient id="paint15_linear_5109_536" x1="57.293" y1="36.178" x2="58.543" y2="36.178" gradientUnits="userSpaceOnUse"><stop stop-color="#0067A8"/><stop offset=".553" stop-color="#0091A6"/><stop offset="1" stop-color="#00B3DF"/></linearGradient><linearGradient id="paint16_linear_5109_536" x1="36.416" y1="65.056" x2="37.187" y2="65.056" gradientUnits="userSpaceOnUse"><stop stop-color="#0067A8"/><stop offset=".553" stop-color="#0091A6"/><stop offset="1" stop-color="#00B3DF"/></linearGradient><linearGradient id="paint17_linear_5109_536" x1="37.783" y1="63.834" x2="95.276" y2="63.831" gradientUnits="userSpaceOnUse"><stop stop-color="#0067A8"/><stop offset=".553" stop-color="#0091A6"/><stop offset="1" stop-color="#00B3DF"/></linearGradient><linearGradient id="paint18_linear_5109_536" x1="59.289" y1="36.303" x2="61.624" y2="36.302" gradientUnits="userSpaceOnUse"><stop stop-color="#0067A8"/><stop offset=".553" stop-color="#0091A6"/><stop offset="1" stop-color="#00B3DF"/></linearGradient><linearGradient id="paint19_linear_5109_536" x1="37.248" y1="67.368" x2="38.248" y2="67.368" gradientUnits="userSpaceOnUse"><stop stop-color="#0067A8"/><stop offset=".553" stop-color="#0091A6"/><stop offset="1" stop-color="#00B3DF"/></linearGradient><linearGradient id="paint20_linear_5109_536" x1="61.975" y1="35.953" x2="63.188" y2="35.953" gradientUnits="userSpaceOnUse"><stop stop-color="#0067A8"/><stop offset=".553" stop-color="#0091A6"/><stop offset="1" stop-color="#00B3DF"/></linearGradient><linearGradient id="paint21_linear_5109_536" x1="37.625" y1="69.448" x2="38.557" y2="69.448" gradientUnits="userSpaceOnUse"><stop stop-color="#0067A8"/><stop offset=".553" stop-color="#0091A6"/><stop offset="1" stop-color="#00B3DF"/></linearGradient><linearGradient id="paint22_linear_5109_536" x1="37.49" y1="68.685" x2="38.391" y2="68.685" gradientUnits="userSpaceOnUse"><stop stop-color="#0067A8"/><stop offset=".553" stop-color="#0091A6"/><stop offset="1" stop-color="#00B3DF"/></linearGradient><linearGradient id="paint23_linear_5109_536" x1="61.193" y1="36.06" x2="62.396" y2="36.06" gradientUnits="userSpaceOnUse"><stop stop-color="#0067A8"/><stop offset=".553" stop-color="#0091A6"/><stop offset="1" stop-color="#00B3DF"/></linearGradient><linearGradient id="paint24_linear_5109_536" x1="37.127" y1="50.815" x2="58.243" y2="50.815" gradientUnits="userSpaceOnUse"><stop stop-color="#0067A8"/><stop offset=".553" stop-color="#0091A6"/><stop offset="1" stop-color="#00B3DF"/></linearGradient><linearGradient id="paint25_linear_5109_536" x1="58.543" y1="36.589" x2="59.736" y2="36.589" gradientUnits="userSpaceOnUse"><stop stop-color="#0067A8"/><stop offset=".553" stop-color="#0091A6"/><stop offset="1" stop-color="#00B3DF"/></linearGradient><linearGradient id="paint26_linear_5109_536" x1="37.188" y1="66.058" x2="37.992" y2="66.058" gradientUnits="userSpaceOnUse"><stop stop-color="#0067A8"/><stop offset=".553" stop-color="#0091A6"/><stop offset="1" stop-color="#00B3DF"/></linearGradient><linearGradient id="paint27_linear_5109_536" x1="57.783" y1="36.784" x2="58.99" y2="36.783" gradientUnits="userSpaceOnUse"><stop stop-color="#0067A8"/><stop offset=".553" stop-color="#0091A6"/><stop offset="1" stop-color="#00B3DF"/></linearGradient><linearGradient id="paint28_linear_5109_536" x1="37.15" y1="65.302" x2="37.925" y2="65.302" gradientUnits="userSpaceOnUse"><stop stop-color="#0067A8"/><stop offset=".553" stop-color="#0091A6"/><stop offset="1" stop-color="#00B3DF"/></linearGradient><linearGradient id="paint29_linear_5109_536" x1="41.447" y1="63.837" x2="91.825" y2="63.836" gradientUnits="userSpaceOnUse"><stop stop-color="#0067A8"/><stop offset=".553" stop-color="#0091A6"/><stop offset="1" stop-color="#00B3DF"/></linearGradient><linearGradient id="paint30_linear_5109_536" x1="40.795" y1="67.994" x2="41.849" y2="67.994" gradientUnits="userSpaceOnUse"><stop stop-color="#0067A8"/><stop offset=".553" stop-color="#0091A6"/><stop offset="1" stop-color="#00B3DF"/></linearGradient><linearGradient id="paint31_linear_5109_536" x1="61.16" y1="39.43" x2="63.291" y2="39.429" gradientUnits="userSpaceOnUse"><stop stop-color="#0067A8"/><stop offset=".553" stop-color="#0091A6"/><stop offset="1" stop-color="#00B3DF"/></linearGradient><linearGradient id="paint32_linear_5109_536" x1="63.742" y1="39.183" x2="64.798" y2="39.183" gradientUnits="userSpaceOnUse"><stop stop-color="#0067A8"/><stop offset=".553" stop-color="#0091A6"/><stop offset="1" stop-color="#00B3DF"/></linearGradient><linearGradient id="paint33_linear_5109_536" x1="41.26" y1="69.962" x2="42.204" y2="69.962" gradientUnits="userSpaceOnUse"><stop stop-color="#0067A8"/><stop offset=".553" stop-color="#0091A6"/><stop offset="1" stop-color="#00B3DF"/></linearGradient><linearGradient id="paint34_linear_5109_536" x1="62.996" y1="39.251" x2="64.04" y2="39.251" gradientUnits="userSpaceOnUse"><stop stop-color="#0067A8"/><stop offset=".553" stop-color="#0091A6"/><stop offset="1" stop-color="#00B3DF"/></linearGradient><linearGradient id="paint35_linear_5109_536" x1="41.098" y1="69.244" x2="42.015" y2="69.244" gradientUnits="userSpaceOnUse"><stop stop-color="#0067A8"/><stop offset=".553" stop-color="#0091A6"/><stop offset="1" stop-color="#00B3DF"/></linearGradient><linearGradient id="paint36_linear_5109_536" x1="40.582" y1="52.641" x2="60.031" y2="52.641" gradientUnits="userSpaceOnUse"><stop stop-color="#0067A8"/><stop offset=".553" stop-color="#0091A6"/><stop offset="1" stop-color="#00B3DF"/></linearGradient><linearGradient id="paint37_linear_5109_536" x1="60.438" y1="39.647" x2="61.469" y2="39.647" gradientUnits="userSpaceOnUse"><stop stop-color="#0067A8"/><stop offset=".553" stop-color="#0091A6"/><stop offset="1" stop-color="#00B3DF"/></linearGradient><linearGradient id="paint38_linear_5109_536" x1="40.709" y1="66.749" x2="41.534" y2="66.749" gradientUnits="userSpaceOnUse"><stop stop-color="#0067A8"/><stop offset=".553" stop-color="#0091A6"/><stop offset="1" stop-color="#00B3DF"/></linearGradient><linearGradient id="paint39_linear_5109_536" x1="40.647" y1="66.028" x2="41.444" y2="66.028" gradientUnits="userSpaceOnUse"><stop stop-color="#0067A8"/><stop offset=".553" stop-color="#0091A6"/><stop offset="1" stop-color="#00B3DF"/></linearGradient><linearGradient id="paint40_linear_5109_536" x1="59.711" y1="39.807" x2="60.751" y2="39.807" gradientUnits="userSpaceOnUse"><stop stop-color="#0067A8"/><stop offset=".553" stop-color="#0091A6"/><stop offset="1" stop-color="#00B3DF"/></linearGradient><linearGradient id="paint41_linear_5109_536" x1="42.203" y1="63.835" x2="91.099" y2="63.834" gradientUnits="userSpaceOnUse"><stop stop-color="#0067A8"/><stop offset=".553" stop-color="#0091A6"/><stop offset="1" stop-color="#00B3DF"/></linearGradient><linearGradient id="paint42_linear_5109_536" x1="61.469" y1="40.102" x2="63.562" y2="40.102" gradientUnits="userSpaceOnUse"><stop stop-color="#0067A8"/><stop offset=".553" stop-color="#0091A6"/><stop offset="1" stop-color="#00B3DF"/></linearGradient><linearGradient id="paint43_linear_5109_536" x1="41.533" y1="68.044" x2="42.598" y2="68.044" gradientUnits="userSpaceOnUse"><stop stop-color="#0067A8"/><stop offset=".553" stop-color="#0091A6"/><stop offset="1" stop-color="#00B3DF"/></linearGradient><linearGradient id="paint44_linear_5109_536" x1="64.037" y1="39.873" x2="65.058" y2="39.873" gradientUnits="userSpaceOnUse"><stop stop-color="#0067A8"/><stop offset=".553" stop-color="#0091A6"/><stop offset="1" stop-color="#00B3DF"/></linearGradient><linearGradient id="paint45_linear_5109_536" x1="42.014" y1="69.996" x2="42.964" y2="69.996" gradientUnits="userSpaceOnUse"><stop stop-color="#0067A8"/><stop offset=".553" stop-color="#0091A6"/><stop offset="1" stop-color="#00B3DF"/></linearGradient><linearGradient id="paint46_linear_5109_536" x1="41.846" y1="69.285" x2="42.767" y2="69.285" gradientUnits="userSpaceOnUse"><stop stop-color="#0067A8"/><stop offset=".553" stop-color="#0091A6"/><stop offset="1" stop-color="#00B3DF"/></linearGradient><linearGradient id="paint47_linear_5109_536" x1="63.291" y1="39.937" x2="64.302" y2="39.937" gradientUnits="userSpaceOnUse"><stop stop-color="#0067A8"/><stop offset=".553" stop-color="#0091A6"/><stop offset="1" stop-color="#00B3DF"/></linearGradient><linearGradient id="paint48_linear_5109_536" x1="41.305" y1="52.992" x2="60.319" y2="52.991" gradientUnits="userSpaceOnUse"><stop stop-color="#0067A8"/><stop offset=".553" stop-color="#0091A6"/><stop offset="1" stop-color="#00B3DF"/></linearGradient><linearGradient id="paint49_linear_5109_536" x1="60.75" y1="40.311" x2="61.752" y2="40.311" gradientUnits="userSpaceOnUse"><stop stop-color="#0067A8"/><stop offset=".553" stop-color="#0091A6"/><stop offset="1" stop-color="#00B3DF"/></linearGradient><linearGradient id="paint50_linear_5109_536" x1="41.443" y1="66.809" x2="42.27" y2="66.809" gradientUnits="userSpaceOnUse"><stop stop-color="#0067A8"/><stop offset=".553" stop-color="#0091A6"/><stop offset="1" stop-color="#00B3DF"/></linearGradient><linearGradient id="paint51_linear_5109_536" x1="41.377" y1="66.095" x2="42.181" y2="66.095" gradientUnits="userSpaceOnUse"><stop stop-color="#0067A8"/><stop offset=".553" stop-color="#0091A6"/><stop offset="1" stop-color="#00B3DF"/></linearGradient><linearGradient id="paint52_linear_5109_536" x1="60.027" y1="40.466" x2="61.036" y2="40.466" gradientUnits="userSpaceOnUse"><stop stop-color="#0067A8"/><stop offset=".553" stop-color="#0091A6"/><stop offset="1" stop-color="#00B3DF"/></linearGradient><linearGradient id="paint53_linear_5109_536" x1="59.299" y1="63.832" x2="73.117" y2="63.832" gradientUnits="userSpaceOnUse"><stop stop-color="#0067A8"/><stop offset=".553" stop-color="#0091A6"/><stop offset="1" stop-color="#00B3DF"/></linearGradient><linearGradient id="paint54_linear_5109_536" x1="61.861" y1="51.289" x2="64.852" y2="51.289" gradientUnits="userSpaceOnUse"><stop stop-color="#0067A8"/><stop offset=".553" stop-color="#0091A6"/><stop offset="1" stop-color="#00B3DF"/></linearGradient><linearGradient id="paint55_linear_5109_536" x1="59.518" y1="58.568" x2="61.355" y2="58.568" gradientUnits="userSpaceOnUse"><stop stop-color="#0067A8"/><stop offset=".553" stop-color="#0091A6"/><stop offset="1" stop-color="#00B3DF"/></linearGradient><linearGradient id="paint56_linear_5109_536" x1="65.133" y1="50.792" x2="66.249" y2="50.792" gradientUnits="userSpaceOnUse"><stop stop-color="#0067A8"/><stop offset=".553" stop-color="#0091A6"/><stop offset="1" stop-color="#00B3DF"/></linearGradient><linearGradient id="paint57_linear_5109_536" x1="60.76" y1="60.808" x2="62.229" y2="60.808" gradientUnits="userSpaceOnUse"><stop stop-color="#0067A8"/><stop offset=".553" stop-color="#0091A6"/><stop offset="1" stop-color="#00B3DF"/></linearGradient><linearGradient id="paint58_linear_5109_536" x1="60.32" y1="60.196" x2="61.753" y2="60.196" gradientUnits="userSpaceOnUse"><stop stop-color="#0067A8"/><stop offset=".553" stop-color="#0091A6"/><stop offset="1" stop-color="#00B3DF"/></linearGradient><linearGradient id="paint59_linear_5109_536" x1="64.287" y1="50.831" x2="65.548" y2="50.831" gradientUnits="userSpaceOnUse"><stop stop-color="#0067A8"/><stop offset=".553" stop-color="#0091A6"/><stop offset="1" stop-color="#00B3DF"/></linearGradient><linearGradient id="paint60_linear_5109_536" x1="60.709" y1="47.913" x2="61.674" y2="47.913" gradientUnits="userSpaceOnUse"><stop stop-color="#0067A8"/><stop offset=".553" stop-color="#0091A6"/><stop offset="1" stop-color="#00B3DF"/></linearGradient><linearGradient id="paint61_linear_5109_536" x1="59.35" y1="54.895" x2="60.755" y2="54.895" gradientUnits="userSpaceOnUse"><stop stop-color="#0067A8"/><stop offset=".553" stop-color="#0091A6"/><stop offset="1" stop-color="#00B3DF"/></linearGradient><linearGradient id="paint62_linear_5109_536" x1="62.315" y1="48.744" x2="63.116" y2="48.744" gradientUnits="userSpaceOnUse"><stop stop-color="#0067A8"/><stop offset=".553" stop-color="#0091A6"/><stop offset="1" stop-color="#00B3DF"/></linearGradient><linearGradient id="paint63_linear_5109_536" x1="59.33" y1="55.286" x2="62.697" y2="55.286" gradientUnits="userSpaceOnUse"><stop stop-color="#0067A8"/><stop offset=".553" stop-color="#0091A6"/><stop offset="1" stop-color="#00B3DF"/></linearGradient><linearGradient id="paint64_linear_5109_536" x1="61.625" y1="48.354" x2="62.4" y2="48.354" gradientUnits="userSpaceOnUse"><stop stop-color="#0067A8"/><stop offset=".553" stop-color="#0091A6"/><stop offset="1" stop-color="#00B3DF"/></linearGradient><linearGradient id="paint65_linear_5109_536" x1="59.295" y1="55.089" x2="61.815" y2="55.089" gradientUnits="userSpaceOnUse"><stop stop-color="#0067A8"/><stop offset=".553" stop-color="#0091A6"/><stop offset="1" stop-color="#00B3DF"/></linearGradient><clipPath id="clip0_5109_536"><path fill="#fff" transform="translate(20 25)" d="M0 0h76v68H0z"/></clipPath></defs></svg>