<svg width="117" height="70" fill="none" xmlns="http://www.w3.org/2000/svg"><g clip-path="url('#clip0_3920_1530')" fill="#fff"><path d="M7.45 35.87v17.27c0 .92-.14 1.76-.68 2.55.1-.05.2-.13.3-.16.57-.18 1.13-.49 1.71-.49 4.02-.04 17.25 0 17.25 0v4.36H2.66V35.87h4.79ZM56.06 53.78c.14-.25.27-.5.39-.75 1.71-3.53 1.71-7.67 0-11.2-.12-.25-.25-.5-.39-.75-1.27-2.26-3.17-4.14-5.48-5.44l-1.86-1.04 1.86-1.04c2.31-1.3 4.21-3.18 5.48-5.44.14-.25.27-.5.39-.75 1.71-3.53 1.71-7.67 0-11.2-.12-.25-.25-.5-.39-.75-1.27-2.26-3.17-4.14-5.48-5.44l-1.86-1.04 3.79-2.12A5.016 5.016 0 0 0 54.43 0L43.59 6.07 32.75 0a5.016 5.016 0 0 0 1.92 6.82l3.79 2.12-1.86 1.04c-2.31 1.3-4.21 3.18-5.48 5.44-.14.25-.27.5-.39.75a12.867 12.867 0 0 0 0 11.2c.12.25.25.5.39.75 1.27 2.26 3.17 4.14 5.48 5.44l1.86 1.04-1.86 1.04c-2.31 1.3-4.21 3.18-5.48 5.44-.14.25-.27.5-.39.75a12.867 12.867 0 0 0 0 11.2c.12.25.25.5.39.75 1.27 2.26 3.17 4.14 5.48 5.44l1.84 1.03-3.77 2.11a5.016 5.016 0 0 0-1.92 6.82l10.82-6.06h.04l10.82 6.06c1.35-2.41.49-5.47-1.92-6.82l-3.77-2.11 1.84-1.03c2.31-1.3 4.21-3.18 5.48-5.44ZM39.05 29.19c-2.08-1.17-3.58-3-4.28-5.17a7.211 7.211 0 0 1 0-4.5c.71-2.17 2.2-4 4.28-5.17l4.54-2.54 4.54 2.54c2.08 1.17 3.58 3 4.28 5.17.48 1.46.48 3.04 0 4.5-.71 2.17-2.2 4-4.28 5.17l-4.54 2.54-4.54-2.54Zm9.08 25.66-4.54 2.54-4.54-2.54c-2.08-1.17-3.58-3-4.28-5.17a7.211 7.211 0 0 1 0-4.5c.71-2.17 2.2-4 4.28-5.17l4.54-2.54 4.54 2.54c2.08 1.17 3.58 3 4.28 5.17.48 1.46.48 3.04 0 4.5-.71 2.17-2.2 4-4.28 5.17ZM82.65 35.86s-.01 10.69.01 15.4c0 .73.16 1.46.26 2.19.02.18.07.35.1.52-.05-.1-2.79-4.8-4.91-7.7-4.39-5.69-9.82-10.41-13.24-10.43h-3.2v23.57h4.78s.04-9.95.04-12.93c.02-1.44-.02-2.85-.38-4.21 6.52 1.5 16.47 17.11 16.47 17.11v.02c.1.04 4.85.02 4.85.02V35.87h-4.79l.01-.01ZM82.79 10.26c-.17 0-.29.02-.39.09-2.62 1.16-7.23 13.67-7.68 17.43 0 .02-.01.04-.02.06h-.31s-.01-.04-.02-.06c-.44-3.76-5.06-16.28-7.68-17.43-.1-.07-.23-.09-.39-.09-1.41.02-4.64.04-4.64.04v23.54h4.83s0-10.1-.02-11.19c0 0-.09-3.37-.25-4.91a.875.875 0 0 0-.02-.16c1.84.19 5.9 13.73 6.37 15.95.11.24.23.35.47.37h2.92c.3 0 .44-.11.55-.37.47-2.22 4.53-15.76 6.37-15.95-.02.06.02-.06 0 0 0 .05-.01.11-.02.16-.18 1.78-.25 3.71-.26 5.68v10.43h4.81V10.3s-3.24-.02-4.64-.04h.02ZM24.24 23.06c-1.31-1.01-3.35-1.46-5.93-2.03l-7.87-1.72c-2.29-.49-3.71-1.57-3.71-2.84 0-.78.51-1.37 1.55-1.82 1.07-.45 2.47-.68 4.15-.68 2.24 0 4.03.36 5.32 1.08 1.27.71 2 1.58 2.18 2.59l.02.12 5.23-.21-.02-.15c-.27-2.42-1.57-4.31-3.85-5.62-2.26-1.3-5.18-1.96-8.68-1.96-3.27 0-6.02.58-8.17 1.72-2.18 1.16-3.28 2.92-3.28 5.24 0 3.14 2.21 5.04 7.16 6.15l8.41 1.89c2.39.51 3.88 1.62 3.88 2.89 0 .91-.67 1.56-2.05 2-1.41.44-3.15.67-5.18.67-2.55 0-4.54-.41-5.91-1.21-1.35-.79-2.11-1.81-2.26-3.02l-.02-.12-5.23.14v.14c.24 2.73 1.49 4.81 3.73 6.18 2.22 1.36 5.48 2.05 9.69 2.05 3.94 0 7.08-.6 9.33-1.79 2.28-1.2 3.43-3.04 3.43-5.47 0-1.79-.65-3.21-1.94-4.21l.02-.01ZM107.33 10.3h-6.71c-3.12 7.85-6.24 15.7-9.37 23.6 1.74 0 3.38-.01 5.01.01.38 0 .52-.13.64-.44.52-1.33 1.08-2.65 1.59-3.98.12-.32.28-.43.64-.42 3.19 0 6.37 0 9.56-.02.39 0 .58.09.73.46.54 1.36 1.12 2.7 1.72 4.04.07.15.3.34.46.34 1.67.02 3.34.02 5.1.02-.09-.22-9.36-23.6-9.36-23.6l-.01-.01Zm1.44 17.71c-.28-.35-.57-.7-.83-1.06-.98-1.31-2.34-1.87-3.99-1.87h-3.86c1.26-3.18 2.5-6.3 3.73-9.42h.13c1.63 4.1 3.25 8.22 4.88 12.33-.02 0-.04.02-.06.03v-.01ZM116.829 49c-.02-1.4-.87-2.1-2.34-2.11-2.91-.02-8.99 0-8.99 0v3.62h3.4c.06 0-.19 1.33-.21 1.4-.28.98-.84 1.88-1.68 2.47-2.06 1.44-4.95 1.04-7.05-.1-2.31-1.25-3.63-3.68-3.73-6.28-.11-3.06 1.06-6.08 4.03-7.31 4.24-1.76 10.05-.34 11.73 4.35 1.4-.37 2.92-.78 4.52-1.2.06-.02-.42-1.35-.45-1.42-.46-1.14-1.12-2.2-1.94-3.12-2.58-2.89-6.54-3.86-10.3-3.8-4.01.06-8.59 1.34-10.91 4.87-2 3.04-2.16 7.08-1.5 10.56.47 2.5 1.61 4.88 3.68 6.45 4.21 3.19 13.33 3.87 15.51-2.06.53-1.44.7-2.93.79-4.44.01-.25.01-.37.01-.37h.53v8.91h4.88c.03-.06.06-.08.06-.11 0-3.43.04-6.86-.02-10.29l-.02-.02Z"/></g><defs><clipPath id="clip0_3920_1530"><path fill="#fff" d="M0 0h116.86v69.19H0z"/></clipPath></defs></svg>