<svg width="78" height="58" fill="none" xmlns="http://www.w3.org/2000/svg"><path d="M77.822 1.316c-.236-.694-.71-.926-1.184-1.157C75.454-.304 73.56.39 73.56.39S5.118 22.602 1.33 24.916c-.948.463-1.185.925-1.185 1.157-.71 1.85 1.42 2.545 1.42 2.545l17.763 5.09h.947c4.026-2.314 40.496-22.906 42.39-23.6.238 0 .474 0 .474.231-.947 2.546-32.444 27.765-32.444 27.765l-.237.232L28.8 54.069s-.71 4.859 4.737 0c3.789-3.47 7.341-6.247 9.236-7.635 6.157 3.702 12.551 7.866 15.393 10.18 1.421 1.157 2.605 1.157 3.553 1.157 2.605 0 3.315-2.777 3.315-2.777S77.586 9.877 77.822 3.861V2.473c.237-.232.237-.694 0-1.157Z" fill="#fff"/></svg>